<svg xmlns="http://www.w3.org/2000/svg" width="47" height="60"><path fill-rule="evenodd" fill="#333" d="M0 60V0h32.414L47 14.586V60H0zM33 3.414V14h10.586L33 3.414zM45 16H31V2H2v56h43V16zm-35-1h9a1 1 0 1 1 0 2h-9a1 1 0 1 1 0-2zm0 8h5a1 1 0 1 1 0 2h-5a1 1 0 1 1 0-2zm.71 7.29c.18.189.29.449.29.71 0 .26-.11.52-.29.71-.19.18-.45.29-.71.29-.26 0-.52-.11-.71-.29-.18-.19-.29-.45-.29-.71 0-.271.11-.521.29-.71.37-.37 1.05-.37 1.42 0zM10 37h17a1 1 0 1 1 0 2H10a1 1 0 1 1 0-2zm.71 7.3c.18.179.29.429.29.7 0 .26-.11.52-.29.71-.19.18-.44.29-.71.29-.26 0-.52-.11-.71-.29a1.013 1.013 0 0 1 0-1.42c.38-.37 1.05-.37 1.42.01zM15 44h10a1 1 0 1 1 0 2H15a1 1 0 1 1 0-2zm15-14h7a1 1 0 1 1 0 2h-7a1 1 0 1 1 0-2zm1.29 8.71c-.18-.19-.29-.45-.29-.71 0-.261.11-.521.29-.71.37-.37 1.04-.37 1.42 0 .18.189.29.449.29.71 0 .26-.11.52-.29.71-.19.18-.44.29-.71.29a.994.994 0 0 1-.71-.29zm5 0c-.18-.19-.29-.45-.29-.71 0-.261.11-.521.29-.71.37-.37 1.05-.37 1.42 0 .18.189.29.449.29.71 0 .26-.11.52-.29.71-.19.18-.44.29-.71.29-.27 0-.52-.11-.71-.29zM30 44h7a1 1 0 1 1 0 2h-7a1 1 0 1 1 0-2zm7-19c-.26 0-.52-.11-.71-.29-.18-.19-.29-.45-.29-.71 0-.261.11-.521.29-.71.38-.37 1.04-.37 1.42 0 .19.189.29.449.29.71 0 .26-.1.52-.29.71-.19.18-.45.29-.71.29zm-5 0h-7a1 1 0 1 1 0-2h7a1 1 0 1 1 0 2zm-6 6a1 1 0 0 1-1 1H15a1 1 0 1 1 0-2h10a1 1 0 0 1 1 1zm-6-6c-.26 0-.52-.11-.71-.29-.18-.19-.29-.45-.29-.71 0-.261.11-.521.29-.71.38-.37 1.05-.37 1.42 0 .18.189.29.449.29.71 0 .26-.11.52-.29.71-.19.18-.45.29-.71.29z"/></svg>