<svg xmlns="http://www.w3.org/2000/svg" width="54" height="51"><path fill-rule="evenodd" fill="#F9C82E" d="M43.972 51H10.028C4.504 51 0 46.422 0 40.781V26.206c0-.875.688-1.576 1.547-1.576.86 0 1.547.701 1.547 1.576v14.575c0 3.889 3.106 7.066 6.934 7.066h33.944c3.817 0 6.934-3.165 6.934-7.066V26.44c0-.876.687-1.577 1.547-1.577.859 0 1.547.713 1.547 1.577v14.341C54 46.41 49.508 51 43.972 51zM28.089 38.481a1.497 1.497 0 0 1-1.089.467c-.39 0-.791-.164-1.089-.467L16.067 28.46a1.593 1.593 0 0 1 0-2.23 1.522 1.522 0 0 1 2.189 0l7.197 7.334V1.577C25.453.701 26.14 0 27 0c.859 0 1.547.701 1.547 1.577v31.987l7.186-7.334a1.521 1.521 0 0 1 2.188 0 1.591 1.591 0 0 1 0 2.23l-9.832 10.021z"/></svg>