<svg xmlns="http://www.w3.org/2000/svg" width="30" height="42"><path d="M20.545 9.517a1.611 1.611 0 0 0 .38-1.611 1.515 1.515 0 0 0-1.216-1.07l-5.084-.772a.663.663 0 0 1-.5-.38L11.85.876A1.493 1.493 0 0 0 10.5 0c-.576 0-1.095.336-1.35.876l-2.274 4.81a.669.669 0 0 1-.5.38l-5.086.77a1.518 1.518 0 0 0-1.215 1.07 1.61 1.61 0 0 0 .38 1.611l3.68 3.743c.157.16.229.39.192.615l-.868 5.286c-.077.465.04.917.328 1.274.449.556 1.231.725 1.857.382l4.547-2.496a.657.657 0 0 1 .62 0l4.546 2.496c.221.122.458.183.7.183.446 0 .867-.206 1.157-.565.289-.357.405-.81.328-1.274l-.868-5.286a.714.714 0 0 1 .191-.615z" fill="#ccc" fill-rule="evenodd"/><path d="M20.545 30.517a1.611 1.611 0 0 0 .38-1.611 1.515 1.515 0 0 0-1.216-1.07l-5.084-.772a.663.663 0 0 1-.5-.38l-2.274-4.808A1.493 1.493 0 0 0 10.5 21c-.576 0-1.095.336-1.35.876l-2.274 4.81a.669.669 0 0 1-.5.38l-5.086.77a1.518 1.518 0 0 0-1.215 1.07 1.61 1.61 0 0 0 .38 1.611l3.68 3.743c.157.16.229.39.192.615l-.868 5.286c-.077.465.04.917.328 1.274.449.556 1.231.725 1.857.382l4.547-2.496a.657.657 0 0 1 .62 0l4.546 2.496c.221.122.458.183.7.183.446 0 .867-.206 1.157-.565.289-.357.405-.81.328-1.274l-.868-5.286a.714.714 0 0 1 .191-.615z" fill="#f9c82e" fill-rule="evenodd"/></svg>