<svg xmlns="http://www.w3.org/2000/svg" xmlns:xlink="http://www.w3.org/1999/xlink" width="47px" height="60px">
  <path fill-rule="evenodd"  fill="rgb(51, 51, 51)" d="M-0.000,60.000 L-0.000,-0.000 L32.414,-0.000 L47.000,14.586 L47.000,60.000 L-0.000,60.000 ZM33.000,3.414 L33.000,14.000 L43.586,14.000 L33.000,3.414 ZM45.000,16.000 L31.000,16.000 L31.000,2.000 L2.000,2.000 L2.000,58.000 L45.000,58.000 L45.000,16.000 ZM10.000,15.000 L19.000,15.000 C19.552,15.000 20.000,15.447 20.000,16.000 C20.000,16.553 19.552,17.000 19.000,17.000 L10.000,17.000 C9.448,17.000 9.000,16.553 9.000,16.000 C9.000,15.447 9.448,15.000 10.000,15.000 ZM10.000,23.000 L15.000,23.000 C15.552,23.000 16.000,23.447 16.000,24.000 C16.000,24.553 15.552,25.000 15.000,25.000 L10.000,25.000 C9.448,25.000 9.000,24.553 9.000,24.000 C9.000,23.447 9.448,23.000 10.000,23.000 ZM10.710,30.290 C10.890,30.479 11.000,30.739 11.000,31.000 C11.000,31.260 10.890,31.520 10.710,31.710 C10.520,31.890 10.260,32.000 10.000,32.000 C9.740,32.000 9.480,31.890 9.290,31.710 C9.110,31.520 9.000,31.260 9.000,31.000 C9.000,30.729 9.110,30.479 9.290,30.290 C9.660,29.920 10.340,29.920 10.710,30.290 ZM10.000,37.000 L27.000,37.000 C27.552,37.000 28.000,37.447 28.000,38.000 C28.000,38.553 27.552,39.000 27.000,39.000 L10.000,39.000 C9.448,39.000 9.000,38.553 9.000,38.000 C9.000,37.447 9.448,37.000 10.000,37.000 ZM10.710,44.300 C10.890,44.479 11.000,44.729 11.000,45.000 C11.000,45.260 10.890,45.520 10.710,45.710 C10.520,45.890 10.270,46.000 10.000,46.000 C9.740,46.000 9.480,45.890 9.290,45.710 C9.100,45.520 9.000,45.270 9.000,45.000 C9.000,44.729 9.110,44.470 9.290,44.290 C9.670,43.920 10.340,43.920 10.710,44.300 ZM15.000,44.000 L25.000,44.000 C25.552,44.000 26.000,44.447 26.000,45.000 C26.000,45.553 25.552,46.000 25.000,46.000 L15.000,46.000 C14.448,46.000 14.000,45.553 14.000,45.000 C14.000,44.447 14.448,44.000 15.000,44.000 ZM30.000,30.000 L37.000,30.000 C37.552,30.000 38.000,30.447 38.000,31.000 C38.000,31.553 37.552,32.000 37.000,32.000 L30.000,32.000 C29.448,32.000 29.000,31.553 29.000,31.000 C29.000,30.447 29.448,30.000 30.000,30.000 ZM31.290,38.710 C31.110,38.520 31.000,38.260 31.000,38.000 C31.000,37.739 31.110,37.479 31.290,37.290 C31.660,36.920 32.330,36.920 32.710,37.290 C32.890,37.479 33.000,37.739 33.000,38.000 C33.000,38.260 32.890,38.520 32.710,38.710 C32.520,38.890 32.270,39.000 32.000,39.000 C31.730,39.000 31.480,38.899 31.290,38.710 ZM36.290,38.710 C36.110,38.520 36.000,38.260 36.000,38.000 C36.000,37.739 36.110,37.479 36.290,37.290 C36.660,36.920 37.340,36.920 37.710,37.290 C37.890,37.479 38.000,37.739 38.000,38.000 C38.000,38.260 37.890,38.520 37.710,38.710 C37.520,38.890 37.270,39.000 37.000,39.000 C36.730,39.000 36.480,38.890 36.290,38.710 ZM30.000,44.000 L37.000,44.000 C37.552,44.000 38.000,44.447 38.000,45.000 C38.000,45.553 37.552,46.000 37.000,46.000 L30.000,46.000 C29.448,46.000 29.000,45.553 29.000,45.000 C29.000,44.447 29.448,44.000 30.000,44.000 ZM37.000,25.000 C36.740,25.000 36.480,24.890 36.290,24.710 C36.110,24.520 36.000,24.260 36.000,24.000 C36.000,23.739 36.110,23.479 36.290,23.290 C36.670,22.920 37.330,22.920 37.710,23.290 C37.900,23.479 38.000,23.739 38.000,24.000 C38.000,24.260 37.900,24.520 37.710,24.710 C37.520,24.890 37.260,25.000 37.000,25.000 ZM32.000,25.000 L25.000,25.000 C24.448,25.000 24.000,24.553 24.000,24.000 C24.000,23.447 24.448,23.000 25.000,23.000 L32.000,23.000 C32.552,23.000 33.000,23.447 33.000,24.000 C33.000,24.553 32.552,25.000 32.000,25.000 ZM26.000,31.000 C26.000,31.553 25.552,32.000 25.000,32.000 L15.000,32.000 C14.448,32.000 14.000,31.553 14.000,31.000 C14.000,30.447 14.448,30.000 15.000,30.000 L25.000,30.000 C25.552,30.000 26.000,30.447 26.000,31.000 ZM20.000,25.000 C19.740,25.000 19.480,24.890 19.290,24.710 C19.110,24.520 19.000,24.260 19.000,24.000 C19.000,23.739 19.110,23.479 19.290,23.290 C19.670,22.920 20.340,22.920 20.710,23.290 C20.890,23.479 21.000,23.739 21.000,24.000 C21.000,24.260 20.890,24.520 20.710,24.710 C20.520,24.890 20.260,25.000 20.000,25.000 Z"/>
</svg>