<svg xmlns="http://www.w3.org/2000/svg" xmlns:xlink="http://www.w3.org/1999/xlink" width="54px" height="51px">
  <path fill-rule="evenodd"  fill="rgb(249, 200, 46)" d="M43.972,51.000 L10.028,51.000 C4.504,51.000 -0.000,46.422 -0.000,40.781 L-0.000,26.206 C-0.000,25.331 0.688,24.630 1.547,24.630 C2.407,24.630 3.094,25.331 3.094,26.206 L3.094,40.781 C3.094,44.670 6.200,47.847 10.028,47.847 L43.972,47.847 C47.789,47.847 50.906,44.682 50.906,40.781 L50.906,26.440 C50.906,25.564 51.593,24.863 52.453,24.863 C53.312,24.863 54.000,25.576 54.000,26.440 L54.000,40.781 C54.000,46.410 49.508,51.000 43.972,51.000 ZM28.089,38.481 C27.791,38.796 27.390,38.948 27.000,38.948 C26.610,38.948 26.209,38.784 25.911,38.481 L16.067,28.460 C15.460,27.842 15.460,26.849 16.067,26.230 C16.674,25.611 17.649,25.611 18.256,26.230 L25.453,33.564 L25.453,1.577 C25.453,0.701 26.140,-0.000 27.000,-0.000 C27.859,-0.000 28.547,0.701 28.547,1.577 L28.547,33.564 L35.733,26.230 C36.340,25.611 37.314,25.611 37.921,26.230 C38.529,26.849 38.529,27.842 37.921,28.460 L28.089,38.481 Z"/>
</svg>