<?xml version="1.0" encoding="UTF-8" standalone="no"?>
<svg
   xmlns:dc="http://purl.org/dc/elements/1.1/"
   xmlns:cc="http://creativecommons.org/ns#"
   xmlns:rdf="http://www.w3.org/1999/02/22-rdf-syntax-ns#"
   xmlns:svg="http://www.w3.org/2000/svg"
   xmlns="http://www.w3.org/2000/svg"
   xmlns:sodipodi="http://sodipodi.sourceforge.net/DTD/sodipodi-0.dtd"
   xmlns:inkscape="http://www.inkscape.org/namespaces/inkscape"
   width="30px"
   height="42px"
   version="1.1"
   id="svg3755"
   sodipodi:docname="star.svg"
   inkscape:version="0.92.2 (5c3e80d, 2017-08-06)">
  <metadata
     id="metadata3761">
    <rdf:RDF>
      <cc:Work
         rdf:about="">
        <dc:format>image/svg+xml</dc:format>
        <dc:type
           rdf:resource="http://purl.org/dc/dcmitype/StillImage" />
      </cc:Work>
    </rdf:RDF>
  </metadata>
  <defs
     id="defs3759" />
  <sodipodi:namedview
     pagecolor="#ffffff"
     bordercolor="#666666"
     borderopacity="1"
     objecttolerance="10"
     gridtolerance="10"
     guidetolerance="10"
     inkscape:pageopacity="0"
     inkscape:pageshadow="2"
     inkscape:window-width="1366"
     inkscape:window-height="715"
     id="namedview3757"
     showgrid="false"
     inkscape:zoom="16"
     inkscape:cx="7.4931142"
     inkscape:cy="9.4327305"
     inkscape:window-x="-8"
     inkscape:window-y="22"
     inkscape:window-maximized="1"
     inkscape:current-layer="svg3755" />
  <path
     d="M 20.544919,9.517266 C 20.958208,9.0961658 21.103309,8.4790188 20.925185,7.9058824 20.747061,7.3317457 20.280735,6.9226482 19.709336,6.8356275 L 14.624784,6.0644439 C 14.407633,6.0314361 14.220502,5.8904025 14.124435,5.6843534 L 11.850847,0.8762086 C 11.595668,0.33608 11.077306,0 10.499903,0 9.9235004,0 9.4051384,0.33608 9.1499601,0.8762086 L 6.876372,5.6853537 C 6.7793042,5.8904025 6.5921735,6.0324363 6.3760226,6.0654442 L 1.2904704,6.8356275 C 0.7190713,6.9226482 0.25374628,7.3327459 0.07462116,7.9058824 -0.10350326,8.4800191 0.04259879,9.097166 0.45588747,9.517266 l 3.67856943,3.742891 c 0.1571097,0.160038 0.22916,0.390093 0.1921342,0.615147 l -0.867606,5.285258 c -0.077054,0.465111 0.040028,0.917218 0.3282292,1.274303 0.4483132,0.556133 1.2308598,0.725173 1.8562966,0.382091 l 4.5471761,-2.495594 c 0.190133,-0.104025 0.4293,-0.103024 0.619433,0 l 4.547176,2.495594 C 15.57845,20.938985 15.814615,21 16.057785,21 c 0.445311,0 0.866605,-0.206049 1.155807,-0.565135 0.289202,-0.357085 0.405284,-0.810192 0.32823,-1.274303 l -0.867606,-5.285258 c -0.03703,-0.225054 0.03402,-0.455109 0.191133,-0.615147 z"
     id="path3753"
     inkscape:connector-curvature="0"
     style="fill:#cccccc;fill-rule:evenodd;stroke-width:1.00046849" />
  <path
     style="fill:#f9c82e;fill-rule:evenodd;stroke-width:1.00046849"
     inkscape:connector-curvature="0"
     id="path35"
     d="m 20.544919,30.517266 c 0.413289,-0.4211 0.55839,-1.038247 0.380266,-1.611384 -0.178124,-0.574136 -0.64445,-0.983234 -1.215849,-1.070255 l -5.084552,-0.771183 c -0.217151,-0.03301 -0.404282,-0.174042 -0.500349,-0.380091 L 11.850847,21.876209 C 11.595668,21.33608 11.077306,21 10.499903,21 9.9235004,21 9.4051384,21.33608 9.1499601,21.876209 L 6.876372,26.685354 c -0.097068,0.205048 -0.2841985,0.347082 -0.5003494,0.38009 l -5.0855522,0.770183 c -0.5713991,0.08702 -1.03672412,0.497119 -1.21584924,1.070255 -0.17812442,0.574137 -0.03202237,1.191284 0.38126631,1.611384 l 3.67856943,3.742891 c 0.1571097,0.160038 0.22916,0.390093 0.1921342,0.615147 l -0.867606,5.285258 c -0.077054,0.465111 0.040028,0.917218 0.3282292,1.274303 0.4483132,0.556133 1.2308598,0.725173 1.8562966,0.382091 l 4.5471761,-2.495594 c 0.190133,-0.104025 0.4293,-0.103024 0.619433,0 l 4.547176,2.495594 C 15.57845,41.938985 15.814615,42 16.057785,42 c 0.445311,0 0.866605,-0.206049 1.155807,-0.565135 0.289202,-0.357085 0.405284,-0.810192 0.32823,-1.274303 l -0.867606,-5.285258 c -0.03703,-0.225054 0.03402,-0.455109 0.191133,-0.615147 z" />
</svg>
