<svg xmlns="http://www.w3.org/2000/svg" xmlns:xlink="http://www.w3.org/1999/xlink" width="126px" height="126px">
  <path fill-rule="evenodd"  fill="rgb(249, 200, 46)" d="M63.000,-0.000 C97.794,-0.000 126.000,28.206 126.000,63.000 C126.000,97.794 97.794,126.000 63.000,126.000 C28.206,126.000 -0.000,97.794 -0.000,63.000 C-0.000,28.206 28.206,-0.000 63.000,-0.000 Z"/>
  <path fill-rule="evenodd"  fill="rgb(51, 51, 51)" d="M98.000,86.478 C98.000,89.522 95.498,91.999 92.422,91.999 L64.782,91.999 C61.388,91.999 58.161,90.806 55.610,88.624 C55.446,90.512 53.842,91.999 51.893,91.999 L31.328,91.999 C30.594,91.999 30.000,91.411 30.000,90.684 L30.000,56.699 C30.000,55.973 30.594,55.384 31.328,55.384 L51.893,55.384 C53.606,55.384 55.052,56.533 55.489,58.092 C56.654,57.383 57.770,56.603 58.820,55.757 C62.767,52.578 65.873,48.477 68.053,43.568 C68.648,42.229 69.121,40.717 69.501,38.946 C69.697,38.031 70.139,37.197 70.778,36.536 C72.183,35.083 73.969,34.996 74.505,35.001 C77.378,35.008 79.714,37.326 79.714,40.175 C79.714,40.727 79.718,41.237 79.721,41.719 C79.727,42.466 79.733,43.171 79.722,43.855 C79.656,47.928 78.551,51.869 76.504,55.384 L92.422,55.384 C95.498,55.384 98.000,57.861 98.000,60.906 L98.000,61.042 C98.000,62.726 97.235,64.236 96.031,65.249 C97.235,66.263 98.000,67.773 98.000,69.456 L98.000,69.485 C98.000,71.168 97.235,72.678 96.031,73.692 C97.235,74.705 98.000,76.215 98.000,77.899 L98.000,78.064 C98.000,79.747 97.235,81.257 96.031,82.271 C97.235,83.284 98.000,84.794 98.000,86.478 ZM52.969,60.267 C52.969,60.265 52.969,60.263 52.969,60.261 L52.969,59.079 C52.969,58.492 52.486,58.014 51.893,58.014 L32.656,58.014 L32.656,89.370 L44.398,89.370 L44.398,77.913 C44.398,77.187 44.992,76.599 45.726,76.599 C46.459,76.599 47.054,77.187 47.054,77.913 L47.054,89.370 L51.893,89.370 C52.486,89.370 52.969,88.892 52.969,88.305 L52.969,60.267 ZM95.344,69.456 C95.344,67.862 94.033,66.564 92.422,66.564 L88.744,66.564 C88.010,66.564 87.416,65.976 87.416,65.249 C87.416,64.523 88.010,63.935 88.744,63.935 L92.422,63.935 C94.033,63.935 95.344,62.637 95.344,61.042 L95.343,61.042 L95.343,60.906 C95.343,59.311 94.033,58.014 92.422,58.014 L74.066,58.014 C73.567,58.014 73.111,57.738 72.884,57.298 C72.656,56.859 72.697,56.331 72.988,55.930 C75.586,52.363 76.996,48.172 77.066,43.813 C77.076,43.161 77.071,42.471 77.065,41.740 C77.061,41.251 77.057,40.734 77.057,40.175 C77.057,38.772 75.906,37.631 74.491,37.631 C74.474,37.631 74.459,37.630 74.435,37.630 C74.205,37.630 73.351,37.678 72.697,38.354 C72.395,38.666 72.194,39.049 72.099,39.492 C71.681,41.441 71.153,43.120 70.485,44.627 C68.134,49.921 64.773,54.352 60.497,57.796 C58.983,59.016 57.347,60.112 55.625,61.062 L55.625,85.016 L56.878,86.211 C59.011,88.248 61.819,89.370 64.782,89.370 L92.422,89.370 C94.033,89.370 95.343,88.072 95.343,86.478 C95.343,84.883 94.033,83.586 92.422,83.586 L88.744,83.586 C88.010,83.586 87.416,82.997 87.416,82.271 C87.416,81.545 88.010,80.956 88.744,80.956 L92.422,80.956 C94.033,80.956 95.343,79.658 95.343,78.064 L95.343,77.899 C95.343,76.304 94.033,75.007 92.422,75.007 L88.744,75.007 C88.010,75.007 87.416,74.418 87.416,73.692 C87.416,72.966 88.010,72.377 88.744,72.377 L92.422,72.377 C94.033,72.377 95.344,71.080 95.344,69.485 L95.344,69.456 ZM45.726,73.341 C44.993,73.341 44.398,72.752 44.398,72.026 C44.398,71.300 44.993,70.711 45.726,70.711 C46.460,70.711 47.054,71.300 47.054,72.026 C47.054,72.752 46.460,73.341 45.726,73.341 Z"/>
</svg>