<svg xmlns="http://www.w3.org/2000/svg" xmlns:xlink="http://www.w3.org/1999/xlink" width="126px" height="126px">
  <path fill-rule="evenodd"  fill="rgb(249, 200, 46)" d="M63.000,-0.000 C97.794,-0.000 126.000,28.206 126.000,63.000 C126.000,97.794 97.794,126.000 63.000,126.000 C28.206,126.000 -0.000,97.794 -0.000,63.000 C-0.000,28.206 28.206,-0.000 63.000,-0.000 Z"/>
  <path fill-rule="evenodd"  fill="rgb(51, 51, 51)" d="M89.585,78.306 C88.338,77.429 86.900,76.958 85.447,76.881 C79.970,73.296 76.383,70.605 74.289,68.511 L67.855,62.079 L71.759,57.709 C72.499,58.127 73.294,58.402 74.089,58.516 C74.689,58.616 75.088,58.616 75.488,58.616 C76.288,58.616 76.488,58.616 77.288,59.315 C76.888,59.615 76.688,60.115 76.688,60.614 C76.688,61.114 76.888,61.714 77.288,62.114 L80.787,65.612 C81.287,66.212 82.087,66.512 82.887,66.512 C83.686,66.512 84.486,66.212 84.986,65.512 L92.084,58.416 C92.684,57.916 92.984,57.116 92.984,56.316 C92.984,55.517 92.684,54.817 92.084,54.218 L88.585,50.719 C88.185,50.319 87.685,50.119 87.185,50.119 C86.685,50.119 86.186,50.419 85.786,50.719 C84.986,50.019 84.986,49.820 84.986,49.020 C84.986,48.620 84.986,48.120 84.786,47.520 C84.586,46.121 83.886,44.722 82.786,43.622 L79.187,40.024 C77.088,37.925 76.088,36.925 73.389,35.726 C67.590,33.027 61.692,33.527 53.094,37.425 C52.594,37.625 52.394,38.025 52.494,38.525 C52.594,39.025 52.994,39.325 53.494,39.325 L54.793,39.325 C59.192,39.325 61.492,39.325 65.491,43.323 C67.242,45.073 67.292,47.758 65.723,49.733 C65.512,49.764 65.351,49.859 65.191,50.019 L60.750,54.975 L57.393,51.619 C53.703,47.930 51.108,44.440 49.110,40.553 C49.005,38.587 48.216,36.747 46.795,35.326 C45.096,33.627 42.697,32.828 40.297,33.028 C39.997,33.127 39.697,33.327 39.597,33.527 C39.397,33.827 39.397,34.227 39.597,34.527 L42.397,39.525 C41.797,40.824 40.397,41.624 38.997,41.524 L36.098,36.726 C35.998,36.426 35.598,36.226 35.298,36.226 C34.998,36.126 34.699,36.326 34.498,36.626 C32.099,40.224 32.999,45.022 36.598,47.521 C37.838,48.406 39.235,48.899 40.650,49.000 C40.666,49.006 40.680,49.014 40.697,49.020 C44.596,51.019 48.095,53.618 51.794,57.316 L55.450,60.888 L34.199,84.603 C33.399,85.403 32.999,86.502 32.999,87.602 C32.999,88.702 33.399,89.701 34.199,90.500 L35.598,91.900 C36.398,92.600 37.398,92.999 38.398,92.999 C39.397,92.999 40.497,92.600 41.297,91.800 L62.524,68.044 L68.690,74.208 C70.788,76.305 73.484,79.999 77.078,85.388 C77.207,87.312 77.994,89.108 79.387,90.500 C80.887,92.000 82.887,92.800 84.986,92.800 C85.286,92.800 85.586,92.800 85.786,92.800 C86.086,92.800 86.386,92.600 86.586,92.300 C86.786,92.000 86.786,91.600 86.586,91.300 L83.686,86.403 C84.386,85.103 85.686,84.304 87.186,84.404 L89.985,89.201 C90.085,89.501 90.485,89.701 90.785,89.701 C91.185,89.601 91.484,89.501 91.684,89.201 C94.084,85.603 93.084,80.805 89.585,78.306 ZM66.791,41.723 C63.591,38.625 61.192,37.625 58.493,37.325 C64.191,35.526 68.390,35.626 72.589,37.525 C74.988,38.525 75.788,39.325 77.888,41.424 L81.487,45.022 C82.287,45.822 82.786,46.821 82.887,47.821 C82.987,48.321 82.987,48.720 82.987,49.020 C82.987,50.119 83.086,50.919 84.286,52.118 C84.686,52.518 85.286,52.718 85.786,52.718 C86.386,52.718 86.886,52.518 87.185,52.118 L90.685,55.617 C90.885,55.817 90.985,56.017 90.985,56.317 C90.985,56.616 90.885,56.816 90.685,57.016 L83.586,64.113 C83.186,64.513 82.587,64.513 82.187,64.113 L78.687,60.614 C79.087,60.315 79.287,59.815 79.187,59.215 C79.187,58.715 78.987,58.116 78.588,57.716 C77.388,56.516 76.588,56.416 75.488,56.416 C75.188,56.416 74.789,56.416 74.289,56.317 C73.189,56.217 72.289,55.717 71.489,54.917 L67.191,50.619 C69.390,47.921 69.190,44.123 66.791,41.723 ZM35.398,39.325 L37.498,42.923 C37.698,43.223 37.998,43.423 38.298,43.423 L38.798,43.423 C41.097,43.523 43.197,42.323 44.196,40.324 L44.396,39.825 C44.596,39.525 44.596,39.225 44.396,38.925 L42.197,35.127 C43.396,35.327 44.496,35.926 45.396,36.826 C46.427,37.942 47.087,39.354 47.126,40.871 C47.106,40.948 47.095,41.031 47.095,41.124 C47.095,41.587 47.040,42.038 46.936,42.474 C46.559,43.921 45.655,45.183 44.396,46.022 C42.397,47.321 39.697,47.321 37.698,45.922 C35.598,44.422 34.699,41.723 35.398,39.325 ZM53.194,55.917 C50.195,52.818 47.195,50.419 43.996,48.520 C44.496,48.320 45.096,48.020 45.596,47.721 C47.095,46.721 48.095,45.422 48.695,43.822 C50.594,47.021 52.994,50.019 55.993,53.018 L59.427,56.451 L56.734,59.456 L53.194,55.917 ZM39.897,90.301 C39.097,91.100 37.798,91.200 36.998,90.400 L35.598,89.101 C35.198,88.702 34.998,88.202 34.998,87.702 C34.998,87.102 35.198,86.602 35.698,86.103 L36.264,85.469 L37.698,86.902 C37.898,87.102 38.098,87.202 38.397,87.202 C38.697,87.202 38.897,87.102 39.097,86.902 C39.497,86.503 39.497,85.903 39.097,85.503 L37.585,83.991 L38.907,82.514 L40.497,84.103 C40.697,84.304 40.897,84.403 41.197,84.403 C41.497,84.403 41.697,84.304 41.897,84.103 C42.296,83.704 42.296,83.104 41.897,82.704 L40.228,81.036 L65.943,52.271 L70.142,56.469 L66.017,61.084 C65.899,61.134 65.795,61.210 65.691,61.314 L61.692,65.812 C61.578,65.926 61.497,66.057 61.448,66.195 L39.897,90.301 ZM63.892,66.513 L66.628,63.451 L73.089,69.910 C74.888,71.809 77.988,74.208 82.486,77.207 C81.887,77.407 81.287,77.707 80.687,78.106 C79.447,78.881 78.568,79.957 77.956,81.147 C77.947,81.164 77.939,81.182 77.930,81.198 C77.893,81.270 77.858,81.342 77.824,81.414 C77.774,81.517 77.727,81.621 77.683,81.725 C77.652,81.796 77.621,81.867 77.592,81.938 C77.588,81.949 77.584,81.959 77.580,81.969 C77.549,82.048 77.517,82.126 77.488,82.204 C76.920,81.372 76.374,80.586 75.848,79.846 L77.188,78.506 C77.588,78.106 77.588,77.507 77.188,77.107 C76.788,76.707 76.188,76.707 75.788,77.107 L74.674,78.221 C74.258,77.658 73.857,77.126 73.470,76.626 L74.389,75.708 C74.788,75.308 74.788,74.708 74.389,74.308 C73.989,73.908 73.389,73.908 72.989,74.308 L72.226,75.071 C71.491,74.186 70.813,73.432 70.190,72.809 L63.892,66.513 ZM90.684,86.502 L88.585,82.904 C88.385,82.604 88.085,82.404 87.785,82.404 L87.285,82.404 C84.986,82.204 82.886,83.504 81.887,85.503 L81.687,86.003 C81.487,86.302 81.487,86.602 81.687,86.902 L83.886,90.700 C82.686,90.500 81.587,89.901 80.687,89.001 C79.676,87.906 79.022,86.526 78.960,85.043 C78.978,84.969 78.987,84.891 78.987,84.803 C78.987,83.537 79.389,82.351 80.090,81.347 C80.521,80.748 81.059,80.224 81.686,79.806 C82.686,79.106 83.786,78.806 84.986,78.806 C86.185,78.806 87.385,79.206 88.385,79.906 C90.485,81.405 91.384,84.103 90.684,86.502 Z"/>
</svg>