<svg xmlns="http://www.w3.org/2000/svg" xmlns:xlink="http://www.w3.org/1999/xlink" width="126px" height="126px">
  <path fill-rule="evenodd"  fill="rgb(249, 200, 46)" d="M63.000,-0.000 C97.794,-0.000 126.000,28.206 126.000,63.000 C126.000,97.794 97.794,126.000 63.000,126.000 C28.206,126.000 -0.000,97.794 -0.000,63.000 C-0.000,28.206 28.206,-0.000 63.000,-0.000 Z"/>
  <path fill-rule="evenodd"  fill="rgb(51, 51, 51)" d="M87.881,95.648 C87.880,96.395 87.265,97.000 86.507,97.000 L39.374,97.000 C38.615,97.000 38.000,96.393 38.000,95.645 L38.000,30.354 C38.000,29.606 38.615,29.000 39.374,29.000 L86.624,29.000 C86.989,29.000 87.340,29.143 87.597,29.397 C87.855,29.652 88.000,29.997 87.999,30.356 L87.881,95.648 ZM40.749,31.709 L40.749,94.291 L85.134,94.291 L85.247,31.709 L40.749,31.709 ZM82.222,87.922 L79.229,88.261 L78.885,91.210 C78.825,91.728 78.469,92.166 77.969,92.336 C77.822,92.386 77.670,92.411 77.520,92.411 C77.159,92.411 76.805,92.271 76.543,92.010 L70.256,85.759 C70.062,85.775 69.867,85.785 69.669,85.785 C69.469,85.785 69.271,85.775 69.075,85.759 L62.745,92.013 C62.482,92.272 62.130,92.411 61.771,92.411 C61.620,92.411 61.467,92.386 61.320,92.335 C60.821,92.164 60.466,91.727 60.406,91.211 L60.063,88.261 L57.069,87.922 C56.545,87.864 56.102,87.514 55.928,87.024 C55.754,86.533 55.880,85.988 56.253,85.620 L62.600,79.351 C62.585,79.167 62.575,78.982 62.575,78.795 C62.575,74.940 65.757,71.804 69.669,71.804 C73.581,71.804 76.763,74.940 76.763,78.795 C76.763,78.984 76.753,79.171 76.738,79.357 L83.041,85.623 C83.412,85.992 83.537,86.536 83.362,87.025 C83.188,87.515 82.745,87.863 82.222,87.922 ZM63.521,82.276 L60.206,85.551 L61.460,85.692 C62.095,85.764 62.596,86.258 62.669,86.884 L62.812,88.110 L66.119,84.843 C65.042,84.227 64.144,83.340 63.521,82.276 ZM69.669,74.513 C67.273,74.513 65.324,76.434 65.324,78.795 C65.324,81.156 67.273,83.076 69.669,83.076 C72.065,83.076 74.014,81.156 74.014,78.795 C74.014,76.434 72.065,74.513 69.669,74.513 ZM75.812,82.285 C75.188,83.347 74.289,84.233 73.210,84.848 L76.480,88.099 L76.622,86.884 C76.694,86.258 77.196,85.764 77.831,85.692 L79.096,85.549 L75.812,82.285 ZM79.152,45.525 L46.847,45.525 C46.088,45.525 45.472,44.919 45.472,44.171 C45.472,43.423 46.088,42.816 46.847,42.816 L79.152,42.816 C79.911,42.816 80.527,43.423 80.527,44.171 C80.527,44.919 79.911,45.525 79.152,45.525 ZM68.567,39.836 L57.432,39.836 C56.673,39.836 56.057,39.230 56.057,38.482 C56.057,37.733 56.673,37.127 57.432,37.127 L68.567,37.127 C69.326,37.127 69.942,37.733 69.942,38.482 C69.942,39.230 69.326,39.836 68.567,39.836 ZM53.651,65.573 L52.895,65.573 C52.136,65.573 51.521,64.967 51.521,64.219 C51.521,63.470 52.136,62.864 52.895,62.864 L53.651,62.864 C54.411,62.864 55.026,63.470 55.026,64.219 C55.026,64.967 54.411,65.573 53.651,65.573 ZM53.651,54.872 L52.895,54.872 C52.136,54.872 51.521,54.265 51.521,53.518 C51.521,52.769 52.136,52.163 52.895,52.163 L53.651,52.163 C54.411,52.163 55.026,52.769 55.026,53.518 C55.026,54.265 54.411,54.872 53.651,54.872 ZM53.651,60.155 L52.895,60.155 C52.136,60.155 51.521,59.548 51.521,58.800 C51.521,58.052 52.136,57.446 52.895,57.446 L53.651,57.446 C54.411,57.446 55.026,58.052 55.026,58.800 C55.026,59.548 54.411,60.155 53.651,60.155 ZM73.104,65.573 L58.600,65.573 C57.841,65.573 57.226,64.967 57.226,64.219 C57.226,63.470 57.841,62.864 58.600,62.864 L73.103,62.864 C73.863,62.864 74.478,63.470 74.478,64.219 C74.478,64.967 73.863,65.573 73.104,65.573 ZM58.600,54.872 C57.841,54.872 57.226,54.265 57.226,53.518 C57.226,52.769 57.841,52.163 58.600,52.163 L73.103,52.163 C73.863,52.163 74.478,52.769 74.478,53.518 C74.478,54.265 73.863,54.872 73.104,54.872 L58.600,54.872 ZM73.104,60.155 L58.600,60.155 C57.841,60.155 57.226,59.548 57.226,58.800 C57.226,58.052 57.841,57.446 58.600,57.446 L73.103,57.446 C73.863,57.446 74.478,58.052 74.478,58.800 C74.478,59.548 73.863,60.155 73.104,60.155 ZM56.813,75.733 C57.572,75.733 58.188,76.339 58.188,77.087 C58.188,77.835 57.572,78.442 56.813,78.442 L46.228,78.442 C45.469,78.442 44.853,77.835 44.853,77.087 C44.853,76.339 45.469,75.733 46.228,75.733 L56.813,75.733 Z"/>
</svg>