<svg xmlns="http://www.w3.org/2000/svg" xmlns:xlink="http://www.w3.org/1999/xlink" width="126px" height="126px">
  <path fill-rule="evenodd"  fill="rgb(249, 200, 46)" d="M63.000,-0.000 C97.794,-0.000 126.000,28.206 126.000,63.000 C126.000,97.794 97.794,126.000 63.000,126.000 C28.206,126.000 -0.000,97.794 -0.000,63.000 C-0.000,28.206 28.206,-0.000 63.000,-0.000 Z"/>
  <path fill-rule="evenodd"  fill="rgb(51, 51, 51)" d="M74.346,82.608 C69.220,82.608 65.051,78.437 65.051,73.312 C65.051,69.843 66.966,66.816 69.789,65.220 C69.800,65.215 69.807,65.207 69.816,65.202 C71.158,64.451 72.701,64.017 74.346,64.017 C75.194,64.017 76.012,64.141 76.794,64.355 C76.801,64.357 76.810,64.357 76.817,64.361 C80.745,65.446 83.642,69.044 83.642,73.312 C83.642,78.437 79.472,82.608 74.346,82.608 ZM77.445,66.790 L77.445,74.345 C77.445,74.915 76.983,75.378 76.412,75.378 C75.841,75.378 75.379,74.915 75.379,74.345 L75.379,66.165 C75.041,66.117 74.699,66.083 74.346,66.083 C73.237,66.083 72.189,66.342 71.248,66.790 L71.248,74.345 C71.248,74.915 70.786,75.378 70.215,75.378 C69.644,75.378 69.182,74.915 69.182,74.345 L69.182,68.262 C67.907,69.567 67.116,71.348 67.116,73.312 C67.116,77.299 70.361,80.542 74.346,80.542 C78.332,80.542 81.576,77.299 81.576,73.312 C81.576,70.436 79.882,67.954 77.445,66.790 ZM93.063,92.029 C92.458,92.633 91.666,92.934 90.872,92.934 C90.079,92.934 89.285,92.632 88.681,92.028 L81.361,84.693 C79.193,86.033 76.785,86.739 74.347,86.739 C66.943,86.739 60.920,80.715 60.920,73.312 C60.920,65.909 66.943,59.886 74.347,59.886 C81.750,59.886 87.773,65.909 87.773,73.312 C87.773,74.619 87.585,75.910 87.216,77.149 C87.054,77.696 86.480,78.009 85.931,77.843 C85.384,77.680 85.074,77.105 85.237,76.558 C85.550,75.510 85.708,74.418 85.708,73.312 C85.708,67.048 80.611,61.951 74.347,61.951 C68.082,61.951 62.985,67.048 62.985,73.312 C62.985,79.576 68.082,84.673 74.347,84.673 C76.635,84.673 78.901,83.930 80.902,82.522 C81.313,82.234 81.873,82.281 82.227,82.636 L90.143,90.569 C90.544,90.970 91.200,90.970 91.602,90.569 C92.005,90.166 92.005,89.510 91.602,89.107 L83.630,81.135 C83.227,80.732 83.227,80.078 83.630,79.674 C84.033,79.271 84.687,79.271 85.090,79.674 L93.063,87.647 C94.271,88.855 94.271,90.820 93.063,92.029 ZM83.642,43.361 L83.642,58.853 C83.642,59.423 83.180,59.886 82.609,59.886 C82.038,59.886 81.576,59.423 81.576,58.853 L81.576,43.361 C81.576,42.790 82.038,42.328 82.609,42.328 C83.180,42.328 83.642,42.790 83.642,43.361 ZM79.510,43.361 L79.510,56.787 C79.510,57.357 79.049,57.820 78.478,57.820 C77.906,57.820 77.445,57.357 77.445,56.787 L77.445,43.361 C77.445,42.790 77.907,42.328 78.478,42.328 C79.049,42.328 79.510,42.790 79.510,43.361 ZM73.313,43.361 L73.313,56.787 C73.313,57.357 72.852,57.820 72.281,57.820 C71.709,57.820 71.248,57.357 71.248,56.787 L71.248,43.361 C71.248,42.790 71.710,42.328 72.281,42.328 C72.852,42.328 73.313,42.790 73.313,43.361 ZM65.051,43.361 L65.051,59.886 C65.051,60.456 64.589,60.918 64.018,60.918 C63.447,60.918 62.985,60.456 62.985,59.886 L62.985,43.361 C62.985,42.790 63.447,42.328 64.018,42.328 C64.589,42.328 65.051,42.790 65.051,43.361 ZM88.806,66.082 C88.235,66.082 87.773,65.620 87.773,65.050 L87.773,37.164 C87.773,35.456 86.383,34.065 84.675,34.065 L44.394,34.065 C43.823,34.065 43.361,33.602 43.361,33.033 C43.361,32.462 43.823,32.000 44.394,32.000 L84.675,32.000 C87.522,32.000 89.839,34.316 89.839,37.164 L89.839,65.050 C89.839,65.620 89.377,66.082 88.806,66.082 ZM47.492,75.378 C48.064,75.378 48.525,75.840 48.525,76.410 L48.525,78.476 C48.525,79.046 48.064,79.509 47.492,79.509 C46.921,79.509 46.460,79.046 46.460,78.476 L46.460,76.410 C46.460,75.840 46.921,75.378 47.492,75.378 ZM47.492,42.328 C48.064,42.328 48.525,42.790 48.525,43.361 L48.525,72.279 C48.525,72.849 48.064,73.312 47.492,73.312 C46.921,73.312 46.460,72.849 46.460,72.279 L46.460,43.361 C46.460,42.790 46.921,42.328 47.492,42.328 ZM53.689,75.378 C54.261,75.378 54.722,75.840 54.722,76.410 L54.722,78.476 C54.722,79.046 54.261,79.509 53.689,79.509 C53.118,79.509 52.657,79.046 52.657,78.476 L52.657,76.410 C52.657,75.840 53.118,75.378 53.689,75.378 ZM53.690,42.328 C54.261,42.328 54.722,42.790 54.722,43.361 L54.722,72.279 C54.722,72.849 54.261,73.312 53.690,73.312 C53.118,73.312 52.657,72.849 52.657,72.279 L52.657,43.361 C52.657,42.790 53.118,42.328 53.690,42.328 ZM57.821,73.312 C57.250,73.312 56.788,72.849 56.788,72.279 L56.788,43.361 C56.788,42.790 57.250,42.328 57.821,42.328 C58.392,42.328 58.854,42.790 58.854,43.361 L58.854,72.279 C58.854,72.849 58.392,73.312 57.821,73.312 ZM58.854,78.476 C58.854,79.046 58.392,79.509 57.821,79.509 C57.250,79.509 56.788,79.046 56.788,78.476 L56.788,76.410 C56.788,75.840 57.250,75.378 57.821,75.378 C58.392,75.378 58.854,75.840 58.854,76.410 L58.854,78.476 ZM48.223,86.009 L53.689,91.475 L57.091,88.074 C57.494,87.670 58.147,87.670 58.551,88.074 L61.952,91.475 L66.386,87.041 C66.790,86.638 67.443,86.638 67.847,87.041 L72.281,91.475 L74.649,89.107 C75.053,88.703 75.706,88.703 76.109,89.107 L78.478,91.475 L80.846,89.107 C81.250,88.703 81.903,88.703 82.306,89.107 C82.710,89.511 82.710,90.164 82.306,90.567 L79.208,93.666 C79.006,93.867 78.742,93.969 78.478,93.969 C78.213,93.969 77.949,93.867 77.747,93.666 L75.379,91.298 L73.011,93.666 C72.607,94.070 71.954,94.070 71.550,93.666 L67.116,89.232 L62.682,93.666 C62.278,94.070 61.626,94.070 61.222,93.666 L57.821,90.265 L54.420,93.666 C54.016,94.070 53.363,94.070 52.959,93.666 L47.492,88.199 L42.026,93.665 C41.930,93.761 41.817,93.836 41.690,93.889 C41.438,93.993 41.153,93.993 40.901,93.889 C40.648,93.784 40.447,93.582 40.342,93.330 C40.289,93.204 40.262,93.070 40.262,92.936 L40.262,37.164 C40.262,35.456 38.872,34.065 37.164,34.065 C35.456,34.065 34.065,35.456 34.065,37.164 L34.065,71.247 L37.164,71.247 C37.735,71.247 38.197,71.709 38.197,72.279 C38.197,72.849 37.735,73.312 37.164,73.312 L33.032,73.312 C32.461,73.312 32.000,72.849 32.000,72.279 L32.000,37.164 C32.000,34.316 34.317,32.000 37.164,32.000 C40.012,32.000 42.328,34.316 42.328,37.164 L42.328,90.442 L46.762,86.009 C47.166,85.605 47.819,85.605 48.223,86.009 Z"/>
</svg>