<svg xmlns="http://www.w3.org/2000/svg" xmlns:xlink="http://www.w3.org/1999/xlink" width="29px" height="31px">
  <path fill-rule="evenodd"  fill="rgb(249, 200, 46)" d="M17.521,27.747 L11.763,27.747 L8.259,30.847 C8.146,30.947 8.001,31.000 7.854,31.000 C7.771,31.000 7.688,30.983 7.609,30.949 C7.391,30.855 7.250,30.643 7.250,30.410 L7.250,26.961 C2.896,25.276 -0.000,21.138 -0.000,16.533 L-0.000,11.214 C-0.000,5.030 5.149,-0.000 11.479,-0.000 L17.521,-0.000 C23.851,-0.000 29.000,5.030 29.000,11.214 L29.000,16.533 C29.000,22.716 23.851,27.747 17.521,27.747 ZM27.792,11.214 C27.792,5.682 23.185,1.181 17.521,1.181 L11.479,1.181 C5.816,1.181 1.208,5.682 1.208,11.214 L1.208,16.533 C1.208,20.778 3.960,24.581 8.055,25.996 C8.297,26.079 8.458,26.302 8.458,26.552 L8.458,29.078 L11.125,26.719 C11.236,26.620 11.380,26.566 11.530,26.566 L17.521,26.566 C23.185,26.566 27.792,22.065 27.792,16.533 L27.792,11.214 ZM23.448,13.350 C23.393,13.365 23.338,13.372 23.283,13.372 C23.019,13.372 22.777,13.201 22.702,12.942 C21.686,9.421 18.818,6.613 15.218,5.612 C14.897,5.523 14.711,5.196 14.802,4.883 C14.893,4.568 15.227,4.386 15.549,4.476 C19.550,5.589 22.736,8.709 23.865,12.622 C23.956,12.935 23.769,13.262 23.448,13.350 ZM15.879,9.591 C17.179,9.953 18.216,10.968 18.582,12.239 C18.673,12.553 18.486,12.879 18.165,12.968 C18.110,12.982 18.055,12.990 18.001,12.990 C17.736,12.990 17.494,12.819 17.419,12.559 C17.166,11.679 16.448,10.977 15.548,10.727 C15.227,10.638 15.041,10.311 15.133,9.998 C15.224,9.684 15.558,9.501 15.879,9.591 ZM15.063,7.632 C15.154,7.319 15.488,7.135 15.809,7.225 C18.335,7.928 20.346,9.897 21.059,12.367 C21.149,12.680 20.963,13.007 20.641,13.095 C20.586,13.110 20.531,13.117 20.477,13.117 C20.213,13.117 19.971,12.947 19.896,12.687 C19.296,10.610 17.604,8.951 15.479,8.361 C15.158,8.272 14.972,7.945 15.063,7.632 ZM16.089,16.427 L16.264,16.164 C16.528,15.766 16.935,15.493 17.409,15.395 C17.882,15.300 18.365,15.387 18.771,15.645 L22.485,18.002 C22.764,18.179 22.844,18.545 22.663,18.819 L21.347,20.799 C20.768,21.668 19.798,22.142 18.808,22.142 C18.245,22.142 17.675,21.988 17.169,21.667 C17.033,21.602 12.599,19.344 10.143,16.899 C7.696,14.465 6.182,11.824 6.118,11.713 C6.103,11.685 6.089,11.656 6.078,11.627 C5.833,10.966 5.085,8.956 6.685,7.597 L8.509,6.048 C8.761,5.835 9.143,5.860 9.362,6.107 L12.266,9.372 C12.922,10.110 12.843,11.230 12.089,11.871 L11.649,12.244 C12.710,15.245 14.482,15.908 16.089,16.427 ZM10.374,12.228 C10.303,12.005 10.375,11.762 10.555,11.609 L11.297,10.979 C11.552,10.763 11.578,10.397 11.355,10.146 L8.846,7.327 L7.478,8.489 C6.803,9.061 6.719,9.867 7.197,11.178 C7.394,11.513 8.835,13.913 11.005,16.073 C13.327,18.384 17.732,20.626 17.776,20.648 C18.664,21.208 19.789,20.975 20.333,20.156 L21.320,18.670 L18.114,16.635 C17.977,16.548 17.816,16.517 17.659,16.550 C17.501,16.583 17.366,16.673 17.278,16.807 L16.850,17.451 C16.700,17.677 16.413,17.775 16.152,17.689 L15.890,17.605 C14.096,17.029 11.638,16.241 10.374,12.228 Z"/>
</svg>