<svg xmlns="http://www.w3.org/2000/svg" xmlns:xlink="http://www.w3.org/1999/xlink" width="31px" height="31px">
  <path fill-rule="evenodd"  fill="rgb(249, 200, 46)" d="M29.306,10.824 C29.209,10.924 29.080,10.975 28.952,10.975 C28.824,10.975 28.696,10.924 28.598,10.824 C28.402,10.622 28.402,10.295 28.598,10.093 C30.469,8.162 30.469,5.021 28.598,3.091 C28.402,2.889 28.402,2.563 28.598,2.361 C28.794,2.159 29.110,2.159 29.306,2.361 C31.567,4.694 31.567,8.491 29.306,10.824 ZM27.198,9.791 C27.100,9.892 26.972,9.942 26.844,9.942 C26.716,9.942 26.588,9.892 26.490,9.791 C26.294,9.589 26.294,9.262 26.490,9.060 C27.109,8.421 27.450,7.570 27.450,6.664 C27.450,5.758 27.109,4.906 26.490,4.267 C26.294,4.065 26.294,3.739 26.490,3.537 C26.686,3.335 27.002,3.335 27.198,3.537 C28.007,4.370 28.452,5.482 28.452,6.664 C28.452,7.846 28.006,8.957 27.198,9.791 ZM22.288,31.000 L9.676,31.000 C8.461,31.000 7.471,29.979 7.471,28.724 L7.471,2.276 C7.471,1.021 8.461,-0.000 9.676,-0.000 L22.288,-0.000 C23.504,-0.000 24.494,1.021 24.494,2.276 L24.494,28.724 C24.494,29.979 23.504,31.000 22.288,31.000 ZM23.492,2.276 C23.492,1.591 22.952,1.033 22.288,1.033 L9.676,1.033 C9.012,1.033 8.472,1.591 8.472,2.276 L8.472,3.100 L23.492,3.100 L23.492,2.276 ZM23.492,4.133 L8.472,4.133 L8.472,23.767 L23.492,23.767 L23.492,4.133 ZM23.492,24.800 L8.472,24.800 L8.472,28.724 C8.472,29.409 9.012,29.967 9.676,29.967 L22.288,29.967 C22.952,29.967 23.492,29.409 23.492,28.724 L23.492,24.800 ZM15.982,29.450 C14.878,29.450 13.980,28.523 13.980,27.383 C13.980,26.244 14.878,25.317 15.982,25.317 C17.087,25.317 17.985,26.244 17.985,27.383 C17.985,28.523 17.087,29.450 15.982,29.450 ZM15.982,26.350 C15.430,26.350 14.981,26.813 14.981,27.383 C14.981,27.953 15.430,28.417 15.982,28.417 C16.535,28.417 16.984,27.953 16.984,27.383 C16.984,26.813 16.535,26.350 15.982,26.350 ZM13.980,1.550 L15.982,1.550 C16.259,1.550 16.483,1.781 16.483,2.067 C16.483,2.352 16.259,2.583 15.982,2.583 L13.980,2.583 C13.703,2.583 13.479,2.352 13.479,2.067 C13.479,1.781 13.703,1.550 13.980,1.550 ZM17.484,1.550 L17.985,1.550 C18.262,1.550 18.486,1.781 18.486,2.067 C18.486,2.352 18.262,2.583 17.985,2.583 L17.484,2.583 C17.207,2.583 16.984,2.352 16.984,2.067 C16.984,1.781 17.207,1.550 17.484,1.550 ZM5.475,9.648 C5.377,9.749 5.249,9.800 5.121,9.800 C4.993,9.800 4.864,9.749 4.767,9.648 C3.958,8.814 3.513,7.703 3.513,6.521 C3.513,5.339 3.958,4.228 4.767,3.394 C4.963,3.192 5.279,3.192 5.475,3.394 C5.670,3.596 5.670,3.923 5.475,4.125 C4.855,4.764 4.514,5.615 4.514,6.521 C4.514,7.427 4.855,8.278 5.475,8.918 C5.670,9.120 5.670,9.446 5.475,9.648 ZM3.366,10.093 C3.562,10.295 3.562,10.622 3.366,10.824 C3.269,10.924 3.141,10.975 3.012,10.975 C2.884,10.975 2.756,10.924 2.658,10.824 C0.397,8.490 0.397,4.694 2.658,2.361 C2.854,2.159 3.171,2.159 3.366,2.361 C3.562,2.563 3.562,2.889 3.366,3.091 C1.495,5.022 1.495,8.163 3.366,10.093 Z"/>
</svg>