<svg xmlns="http://www.w3.org/2000/svg" xmlns:xlink="http://www.w3.org/1999/xlink" width="31px" height="23px">
  <path fill-rule="evenodd"  fill="rgb(249, 200, 46)" d="M27.209,23.000 L3.791,23.000 C1.700,23.000 -0.000,21.343 -0.000,19.304 L-0.000,3.696 C-0.000,1.657 1.700,-0.000 3.791,-0.000 L27.215,-0.000 C29.306,-0.000 31.006,1.663 31.000,3.702 L31.000,19.304 C31.000,21.343 29.300,23.000 27.209,23.000 ZM29.268,19.304 L29.268,3.702 C29.268,2.595 28.344,1.695 27.209,1.695 L3.791,1.695 C2.655,1.695 1.732,2.595 1.732,3.702 L1.732,19.304 C1.732,20.411 2.655,21.312 3.791,21.312 L27.215,21.312 C28.351,21.312 29.274,20.411 29.274,19.304 L29.268,19.304 ZM27.196,19.548 C27.023,19.723 26.798,19.811 26.567,19.811 C26.356,19.811 26.138,19.736 25.971,19.579 L18.261,12.438 L16.099,14.327 C15.939,14.470 15.727,14.545 15.522,14.545 C15.317,14.545 15.112,14.477 14.945,14.333 L12.841,12.501 L5.086,19.573 C4.920,19.723 4.708,19.798 4.496,19.798 C4.265,19.798 4.034,19.704 3.861,19.529 C3.534,19.185 3.553,18.654 3.900,18.335 L11.539,11.362 L3.868,4.678 C3.508,4.365 3.476,3.833 3.797,3.483 C4.118,3.133 4.663,3.102 5.022,3.414 L13.322,10.656 C13.373,10.693 13.418,10.731 13.463,10.775 C13.463,10.781 13.470,10.787 13.476,10.793 L15.516,12.569 L25.971,3.421 C26.330,3.108 26.875,3.139 27.196,3.483 C27.517,3.833 27.485,4.365 27.132,4.678 L19.550,11.306 L27.164,18.354 C27.510,18.673 27.523,19.210 27.196,19.548 Z"/>
</svg>