<svg xmlns="http://www.w3.org/2000/svg" xmlns:xlink="http://www.w3.org/1999/xlink" width="56px" height="45px">
  <path d="M54.906,35.670 C55.510,35.670 56.000,36.162 56.000,36.768 L56.000,43.902 C56.000,44.508 55.510,45.000 54.906,45.000 L40.031,45.000 L15.969,45.000 L1.094,45.000 C0.489,45.000 -0.000,44.508 -0.000,43.902 L-0.000,36.768 C-0.000,36.162 0.489,35.670 1.094,35.670 L2.844,35.670 L2.844,30.732 L1.094,30.732 C0.489,30.732 -0.000,30.240 -0.000,29.634 L-0.000,22.500 C-0.000,21.893 0.489,21.402 1.094,21.402 L2.844,21.402 L2.844,16.463 L1.094,16.463 C0.489,16.463 -0.000,15.972 -0.000,15.365 L-0.000,8.232 C-0.000,7.625 0.489,7.134 1.094,7.134 L2.844,7.134 L2.844,1.097 C2.844,0.491 3.333,-0.000 3.937,-0.000 L28.000,-0.000 C28.604,-0.000 29.094,0.491 29.094,1.097 L29.094,7.134 L40.031,7.134 C40.635,7.134 41.125,7.626 41.125,8.232 L41.125,14.268 L52.063,14.268 C52.667,14.268 53.156,14.759 53.156,15.366 L53.156,21.402 L54.906,21.402 C55.510,21.402 56.000,21.893 56.000,22.500 L56.000,29.634 C56.000,30.240 55.510,30.732 54.906,30.732 L53.156,30.732 L53.156,35.670 L54.906,35.670 ZM17.062,42.805 L38.938,42.805 L38.938,36.768 C38.938,36.162 39.427,35.670 40.031,35.670 L50.969,35.670 L50.969,30.732 L40.031,30.732 L29.094,30.732 L29.094,35.670 L33.525,35.670 C34.129,35.670 34.619,36.162 34.619,36.768 C34.619,37.374 34.129,37.866 33.525,37.866 L28.000,37.866 L17.062,37.866 L17.062,42.805 ZM17.062,23.597 L17.062,28.536 L28.000,28.536 L38.938,28.536 L38.938,23.597 L28.000,23.597 L17.062,23.597 ZM26.906,21.402 L26.906,16.463 L15.969,16.463 L5.031,16.463 L5.031,21.402 L15.969,21.402 L26.906,21.402 ZM26.906,35.670 L26.906,30.732 L15.969,30.732 L5.031,30.732 L5.031,35.670 L15.969,35.670 L26.906,35.670 ZM2.187,37.866 L2.187,42.805 L14.875,42.805 L14.875,37.866 L3.937,37.866 L2.187,37.866 ZM2.187,23.597 L2.187,28.536 L3.937,28.536 L14.875,28.536 L14.875,23.597 L3.937,23.597 L2.187,23.597 ZM2.187,9.329 L2.187,14.268 L3.937,14.268 L14.875,14.268 L14.875,9.329 L3.937,9.329 L2.187,9.329 ZM26.906,2.195 L5.031,2.195 L5.031,7.134 L15.969,7.134 L26.906,7.134 L26.906,2.195 ZM38.938,9.329 L28.000,9.329 L17.062,9.329 L17.062,14.268 L28.000,14.268 L38.938,14.268 L38.938,9.329 ZM50.969,16.463 L40.031,16.463 L29.094,16.463 L29.094,21.402 L40.031,21.402 L50.969,21.402 L50.969,16.463 ZM53.812,28.536 L53.812,23.597 L52.063,23.597 L41.125,23.597 L41.125,28.536 L52.063,28.536 L53.812,28.536 ZM41.125,37.866 L41.125,42.804 L53.812,42.804 L53.812,37.866 L41.125,37.866 ZM36.499,35.670 L36.545,35.670 C37.149,35.670 37.639,36.162 37.639,36.768 C37.639,37.374 37.149,37.866 36.545,37.866 L36.499,37.866 C35.895,37.866 35.405,37.374 35.405,36.768 C35.405,36.162 35.895,35.670 36.499,35.670 Z"/>
</svg>