<svg xmlns="http://www.w3.org/2000/svg" xmlns:xlink="http://www.w3.org/1999/xlink" width="58px" height="54px">
  <path d="M57.542,38.920 C57.823,39.066 58.000,39.357 58.000,39.675 L58.000,53.149 C58.000,53.619 57.619,54.000 57.150,54.000 L4.249,54.000 C3.780,54.000 3.399,53.619 3.399,53.149 L3.399,25.324 C3.175,25.308 2.965,25.204 2.817,25.034 L0.209,22.043 C-0.099,21.689 -0.063,21.152 0.291,20.843 L1.680,19.629 L6.283,9.853 C6.424,9.556 6.723,9.366 7.052,9.366 L13.421,9.366 L15.217,7.796 C16.279,6.868 17.881,6.868 18.942,7.796 L20.738,9.366 L37.795,9.366 L37.795,5.228 L37.466,5.228 C36.997,5.228 36.617,4.847 36.617,4.377 L36.617,0.850 C36.617,0.380 36.997,-0.000 37.466,-0.000 L45.722,-0.000 C46.191,-0.000 46.571,0.380 46.571,0.850 L46.571,4.377 C46.571,4.847 46.191,5.228 45.722,5.228 L45.393,5.228 L45.393,9.366 L52.076,9.366 C52.405,9.366 52.704,9.555 52.845,9.853 L57.524,19.789 C57.648,20.053 57.628,20.362 57.473,20.608 C57.317,20.854 57.046,21.003 56.755,21.003 L55.235,21.003 L55.235,37.721 L57.542,38.920 ZM49.336,52.298 L50.772,52.298 L50.772,51.278 L49.336,51.278 L49.336,52.298 ZM49.336,49.577 L50.772,49.577 L50.772,49.577 L50.772,47.867 L49.336,47.867 L49.336,49.577 ZM49.336,46.165 L50.772,46.165 L50.772,43.937 L49.336,43.937 L49.336,46.165 ZM49.336,42.235 L50.772,42.235 L50.772,42.235 L50.772,40.526 L49.336,40.526 L49.336,42.235 ZM43.807,52.298 L47.637,52.298 L47.637,40.192 L45.722,39.197 L43.807,40.192 L43.807,52.298 ZM40.672,52.298 L42.108,52.298 L42.108,51.278 L40.672,51.278 L40.672,52.298 ZM40.672,49.577 L42.108,49.577 L42.108,47.867 L40.672,47.867 L40.672,49.577 ZM40.672,46.165 L42.108,46.165 L42.108,43.937 L40.672,43.937 L40.672,46.165 ZM40.672,42.235 L42.108,42.235 L42.108,40.526 L40.672,40.526 L40.672,42.235 ZM38.973,52.298 L38.973,40.192 L37.058,39.196 L35.143,40.192 L35.143,52.298 L38.973,52.298 ZM30.760,52.298 L33.444,52.298 L33.444,51.278 L30.760,51.278 L30.760,52.298 ZM33.444,42.235 L33.444,40.526 L30.760,40.526 L30.760,42.235 L33.444,42.235 ZM30.760,49.577 L33.444,49.577 L33.444,47.867 L30.760,47.867 L30.760,49.577 ZM30.760,46.165 L33.444,46.165 L33.444,43.937 L30.760,43.937 L30.760,46.165 ZM30.760,38.824 L34.086,38.824 L36.667,37.483 C36.912,37.355 37.204,37.355 37.450,37.483 L40.030,38.824 L42.750,38.824 L45.330,37.483 C45.576,37.355 45.868,37.355 46.113,37.483 L48.694,38.824 L51.414,38.824 L53.536,37.721 L53.536,37.721 L53.536,21.003 L34.011,21.003 C34.013,21.006 34.014,21.010 34.017,21.013 C34.224,21.325 34.194,21.763 33.950,22.043 C33.949,22.044 31.342,25.034 31.342,25.034 C31.236,25.156 31.100,25.238 30.948,25.289 C30.934,25.293 30.760,25.328 30.760,25.324 L30.760,38.824 ZM13.466,52.298 L20.693,52.298 L20.693,37.173 L13.466,37.173 L13.466,52.298 ZM5.099,52.298 L11.767,52.298 L11.767,36.322 C11.767,35.853 12.147,35.472 12.617,35.472 L21.543,35.472 C22.012,35.472 22.393,35.853 22.393,36.322 L22.393,52.298 L29.061,52.298 L29.061,24.170 L17.080,13.697 L5.099,24.170 L5.099,52.298 ZM7.591,11.067 L4.873,16.837 L11.475,11.067 L7.591,11.067 ZM44.872,1.701 L38.316,1.701 L38.316,3.527 L44.872,3.527 L44.872,1.701 ZM39.494,5.228 L39.494,11.580 L43.694,11.580 L43.694,5.228 L39.494,5.228 ZM55.415,19.302 L51.537,11.067 L45.393,11.067 L45.393,12.431 C45.393,12.901 45.013,13.282 44.544,13.282 L38.644,13.282 C38.175,13.282 37.795,12.901 37.795,12.431 L37.795,11.067 L22.684,11.067 L25.706,13.708 C26.057,14.015 26.089,14.563 25.788,14.909 C25.479,15.262 24.942,15.299 24.589,14.990 L17.825,9.077 C17.400,8.706 16.759,8.706 16.334,9.077 L2.048,21.565 L3.539,23.275 L16.521,11.927 C16.841,11.647 17.318,11.647 17.638,11.927 L30.620,23.275 L32.111,21.565 L27.155,17.233 C26.801,16.924 26.765,16.387 27.073,16.032 C27.382,15.679 27.919,15.642 28.272,15.951 L32.105,19.302 L55.415,19.302 ZM54.386,39.197 L52.471,40.192 L52.471,52.298 L56.301,52.298 L56.301,40.192 L54.386,39.197 ZM54.386,42.255 C54.020,42.255 53.724,41.958 53.724,41.591 C53.724,41.225 54.020,40.928 54.386,40.928 C54.752,40.928 55.049,41.225 55.049,41.591 C55.049,41.958 54.752,42.255 54.386,42.255 ZM21.434,20.499 L21.434,27.477 L21.543,27.477 C22.012,27.477 22.393,27.858 22.393,28.328 L22.393,31.783 C22.393,32.253 22.012,32.634 21.543,32.634 L12.616,32.634 C12.147,32.634 11.767,32.253 11.767,31.783 L11.767,28.328 C11.767,27.858 12.147,27.477 12.616,27.477 L12.726,27.477 L12.726,20.499 C12.726,20.029 13.106,19.649 13.575,19.649 L20.584,19.649 C21.053,19.649 21.434,20.029 21.434,20.499 ZM13.466,29.178 L13.466,30.933 L20.693,30.933 L20.693,29.178 L20.584,29.178 L13.575,29.178 L13.466,29.178 ZM19.734,21.350 L14.425,21.350 L14.425,27.477 L19.734,27.477 L19.734,21.350 ZM34.197,31.127 L34.306,31.127 L34.306,24.149 C34.306,23.680 34.686,23.299 35.156,23.299 L48.963,23.299 C49.432,23.299 49.813,23.680 49.813,24.149 L49.813,31.127 L49.922,31.127 C50.391,31.127 50.771,31.508 50.771,31.978 L50.771,35.433 C50.771,35.903 50.391,36.284 49.922,36.284 L34.197,36.284 C33.727,36.284 33.347,35.903 33.347,35.433 L33.347,31.978 C33.347,31.508 33.727,31.127 34.197,31.127 ZM48.114,25.000 L36.005,25.000 L36.005,31.127 L48.114,31.127 L48.114,25.000 ZM35.046,34.583 L49.072,34.583 L49.072,32.828 L48.963,32.828 L35.156,32.828 L35.046,32.828 L35.046,34.583 ZM37.059,40.928 C37.425,40.928 37.721,41.225 37.721,41.591 C37.721,41.958 37.425,42.255 37.059,42.255 C36.693,42.255 36.396,41.958 36.396,41.591 C36.396,41.225 36.693,40.928 37.059,40.928 ZM46.385,41.591 C46.385,41.958 46.088,42.255 45.722,42.255 C45.356,42.255 45.060,41.958 45.060,41.591 C45.060,41.225 45.356,40.928 45.722,40.928 C46.088,40.928 46.385,41.225 46.385,41.591 Z"/>
</svg>