<svg xmlns="http://www.w3.org/2000/svg" xmlns:xlink="http://www.w3.org/1999/xlink" width="55px" height="55px">
  <path d="M13.061,41.197 C13.061,40.649 13.505,40.205 14.054,40.205 C14.602,40.205 15.046,40.649 15.046,41.197 C15.046,41.746 14.602,42.190 14.054,42.190 C13.505,42.190 13.061,41.746 13.061,41.197 ZM54.007,7.580 C53.459,7.580 53.015,7.136 53.015,6.588 L53.015,1.985 L1.985,1.985 L1.985,53.014 L35.098,53.014 L35.098,50.779 L29.589,50.779 C29.041,50.779 28.597,50.335 28.597,49.787 L28.597,40.123 L26.403,40.123 L26.403,49.787 C26.403,50.335 25.959,50.779 25.410,50.779 L5.171,50.779 C4.623,50.779 4.179,50.335 4.179,49.787 L4.179,32.236 C4.179,31.688 4.623,31.243 5.171,31.243 L32.567,31.243 L32.567,29.050 L11.937,29.050 C11.389,29.050 10.944,28.605 10.944,28.057 C10.944,27.509 11.389,27.064 11.937,27.064 L33.560,27.064 C34.108,27.064 34.552,27.509 34.552,28.057 L34.552,32.236 C34.552,32.784 34.108,33.228 33.560,33.228 L6.164,33.228 L6.164,35.875 L9.182,35.875 C10.114,35.875 10.938,36.345 11.432,37.060 C12.296,36.612 13.288,36.373 14.330,36.373 C15.163,36.373 15.964,36.525 16.712,36.825 C17.221,37.030 17.468,37.608 17.263,38.116 C17.059,38.625 16.481,38.872 15.973,38.668 C15.461,38.462 14.908,38.358 14.330,38.358 C13.437,38.358 12.580,38.619 11.917,39.084 L11.917,43.310 C12.580,43.775 13.437,44.036 14.330,44.036 C16.332,44.036 17.960,42.763 17.960,41.197 C17.960,40.770 17.840,40.359 17.603,39.975 C17.315,39.509 17.459,38.897 17.926,38.609 C18.392,38.321 19.004,38.466 19.292,38.932 C19.719,39.624 19.945,40.407 19.945,41.197 C19.945,43.857 17.426,46.022 14.330,46.022 C13.288,46.022 12.296,45.782 11.433,45.335 C10.939,46.050 10.115,46.520 9.182,46.520 L6.164,46.520 L6.164,48.794 L24.418,48.794 L24.418,39.131 C24.418,38.583 24.862,38.138 25.410,38.138 L29.589,38.138 C30.137,38.138 30.582,38.583 30.582,39.131 L30.582,48.794 L36.090,48.794 C36.638,48.794 37.083,49.238 37.083,49.787 L37.083,54.007 C37.083,54.556 36.638,55.000 36.090,55.000 L0.992,55.000 C0.444,55.000 -0.000,54.556 -0.000,54.007 L-0.000,0.992 C-0.000,0.444 0.444,-0.000 0.992,-0.000 L54.007,-0.000 C54.555,-0.000 55.000,0.444 55.000,0.992 L55.000,6.588 C55.000,7.136 54.555,7.580 54.007,7.580 ZM9.182,44.535 C9.596,44.535 9.932,44.199 9.932,43.785 L9.932,38.610 C9.932,38.197 9.596,37.861 9.182,37.861 L9.182,37.861 L6.164,37.861 L6.164,44.535 L9.182,44.535 ZM33.170,23.300 L33.170,9.669 C33.170,9.121 33.615,8.676 34.163,8.676 L41.490,8.676 C42.039,8.676 42.483,9.121 42.483,9.669 L42.483,12.911 L42.483,20.058 L42.483,23.300 C42.483,23.848 42.039,24.293 41.490,24.293 L34.163,24.293 C33.615,24.293 33.170,23.848 33.170,23.300 ZM40.498,13.904 L38.605,13.904 L38.605,19.065 L40.498,19.065 L40.498,13.904 ZM35.155,22.308 L40.498,22.308 L40.498,21.050 L37.612,21.050 C37.064,21.050 36.619,20.606 36.619,20.058 L36.619,12.911 C36.619,12.363 37.064,11.919 37.612,11.919 L40.498,11.919 L40.498,10.661 L35.155,10.661 L35.155,22.308 ZM44.085,48.794 L48.836,48.794 L48.836,33.229 L44.594,33.229 C44.046,33.229 43.602,32.784 43.602,32.236 L43.602,28.057 C43.602,27.509 44.046,27.064 44.594,27.064 L48.836,27.064 L48.836,24.293 L46.214,24.293 C45.666,24.293 45.222,23.848 45.222,23.300 L45.222,9.669 C45.222,9.121 45.666,8.676 46.214,8.676 L48.836,8.676 L48.836,6.122 L30.582,6.122 L30.582,20.501 C30.582,21.049 30.137,21.493 29.589,21.493 L25.410,21.493 C24.862,21.493 24.418,21.049 24.418,20.501 L24.418,6.122 L16.744,6.122 L16.744,18.429 C16.744,21.941 13.888,24.797 10.376,24.797 L6.164,24.797 L6.164,27.064 L8.761,27.064 C9.309,27.064 9.753,27.509 9.753,28.057 C9.753,28.605 9.309,29.050 8.761,29.050 L5.171,29.050 C4.623,29.050 4.179,28.605 4.179,28.057 L4.179,23.805 L4.179,5.130 C4.179,4.582 4.623,4.137 5.171,4.137 L25.410,4.137 C25.958,4.137 26.403,4.582 26.403,5.130 L26.403,19.508 L28.597,19.508 L28.597,5.130 C28.597,4.582 29.041,4.137 29.589,4.137 L49.828,4.137 C50.376,4.137 50.821,4.582 50.821,5.130 L50.821,28.057 C50.821,28.606 50.376,29.050 49.828,29.050 L45.587,29.050 L45.587,31.244 L49.828,31.244 C50.376,31.244 50.821,31.688 50.821,32.236 L50.821,49.787 C50.821,50.335 50.376,50.780 49.828,50.780 L45.078,50.780 L45.078,53.014 L53.015,53.014 L53.015,10.117 C53.015,9.569 53.459,9.124 54.007,9.124 C54.555,9.124 55.000,9.569 55.000,10.117 L55.000,54.007 C55.000,54.555 54.555,55.000 54.007,55.000 L44.085,55.000 C43.537,55.000 43.093,54.555 43.093,54.007 L43.093,49.787 C43.093,49.238 43.537,48.794 44.085,48.794 ZM14.759,6.122 L14.035,6.122 L14.035,6.764 C14.035,7.312 13.590,7.757 13.042,7.757 C12.494,7.757 12.050,7.312 12.050,6.764 L12.050,6.122 L11.454,6.122 L11.454,8.749 C11.454,9.297 11.010,9.742 10.462,9.742 C9.913,9.742 9.469,9.297 9.469,8.749 L9.469,6.122 L8.873,6.122 L8.873,6.764 C8.873,7.312 8.429,7.757 7.881,7.757 C7.333,7.757 6.888,7.312 6.888,6.764 L6.888,6.122 L6.164,6.122 L6.164,22.812 L10.376,22.812 C12.793,22.812 14.759,20.846 14.759,18.429 L14.759,6.122 ZM48.836,10.661 L47.207,10.661 L47.207,22.308 L48.836,22.308 L48.836,10.661 ZM10.462,20.197 C9.914,20.197 9.469,19.753 9.469,19.204 C9.469,18.656 9.914,18.212 10.462,18.212 C11.010,18.212 11.454,18.656 11.454,19.204 C11.454,19.753 11.010,20.197 10.462,20.197 Z"/>
</svg>