<svg xmlns="http://www.w3.org/2000/svg"><symbol id="advantages-1"><path fill-rule="evenodd" fill="#F9C82E" d="M63 0c34.794 0 63 28.206 63 63s-28.206 63-63 63S0 97.794 0 63 28.206 0 63 0z"/><path fill-rule="evenodd" fill="#333" d="M89.585 78.306a7.907 7.907 0 0 0-4.138-1.425c-5.477-3.585-9.064-6.276-11.158-8.37l-6.434-6.432 3.904-4.37c.74.418 1.535.693 2.33.807.6.1.999.1 1.399.1.8 0 1 0 1.8.699-.4.3-.6.8-.6 1.299 0 .5.2 1.1.6 1.5l3.499 3.498c.5.6 1.3.9 2.1.9.799 0 1.599-.3 2.099-1l7.098-7.096c.6-.5.9-1.3.9-2.1 0-.799-.3-1.499-.9-2.098l-3.499-3.499c-.4-.4-.9-.6-1.4-.6-.5 0-.999.3-1.399.6-.8-.7-.8-.899-.8-1.699 0-.4 0-.9-.2-1.5-.2-1.399-.9-2.798-2-3.898l-3.599-3.598c-2.099-2.099-3.099-3.099-5.798-4.298-5.799-2.699-11.697-2.199-20.295 1.699-.5.2-.7.6-.6 1.1.1.5.5.8 1 .8h1.299c4.399 0 6.699 0 10.698 3.998 1.751 1.75 1.801 4.435.232 6.41a.908.908 0 0 0-.532.286l-4.441 4.956-3.357-3.356c-3.69-3.689-6.285-7.179-8.283-11.066a7.917 7.917 0 0 0-2.315-5.227c-1.699-1.699-4.098-2.498-6.498-2.298-.3.099-.6.299-.7.499-.2.3-.2.7 0 1l2.8 4.998c-.6 1.299-2 2.099-3.4 1.999l-2.899-4.798c-.1-.3-.5-.5-.8-.5-.3-.1-.599.1-.8.4-2.399 3.598-1.499 8.396 2.1 10.895A7.934 7.934 0 0 0 40.65 49c.016.006.03.014.047.02 3.899 1.999 7.398 4.598 11.097 8.296l3.656 3.572-21.251 23.715c-.8.8-1.2 1.899-1.2 2.999s.4 2.099 1.2 2.898l1.399 1.4c.8.7 1.8 1.099 2.8 1.099.999 0 2.099-.399 2.899-1.199l21.227-23.756 6.166 6.164c2.098 2.097 4.794 5.791 8.388 11.18a7.907 7.907 0 0 0 2.309 5.112c1.5 1.5 3.5 2.3 5.599 2.3h.8c.3 0 .6-.2.8-.5.2-.3.2-.7 0-1l-2.9-4.897c.7-1.3 2-2.099 3.5-1.999l2.799 4.797c.1.3.5.5.8.5.4-.1.699-.2.899-.5 2.4-3.598 1.4-8.396-2.099-10.895zM66.791 41.723c-3.2-3.098-5.599-4.098-8.298-4.398 5.698-1.799 9.897-1.699 14.096.2 2.399 1 3.199 1.8 5.299 3.899l3.599 3.598c.8.8 1.299 1.799 1.4 2.799.1.5.1.899.1 1.199 0 1.099.099 1.899 1.299 3.098.4.4 1 .6 1.5.6.6 0 1.1-.2 1.399-.6l3.5 3.499c.2.2.3.4.3.7 0 .299-.1.499-.3.699l-7.099 7.097c-.4.4-.999.4-1.399 0l-3.5-3.499c.4-.299.6-.799.5-1.399 0-.5-.2-1.099-.599-1.499-1.2-1.2-2-1.3-3.1-1.3-.3 0-.699 0-1.199-.099-1.1-.1-2-.6-2.8-1.4l-4.298-4.298c2.199-2.698 1.999-6.496-.4-8.896zm-31.393-2.398l2.1 3.598c.2.3.5.5.8.5h.5c2.299.1 4.399-1.1 5.398-3.099l.2-.499c.2-.3.2-.6 0-.9l-2.199-3.798c1.199.2 2.299.799 3.199 1.699 1.031 1.116 1.691 2.528 1.73 4.045a.996.996 0 0 0-.031.253c0 .463-.055.914-.159 1.35a6.126 6.126 0 0 1-2.54 3.548c-1.999 1.299-4.699 1.299-6.698-.1-2.1-1.5-2.999-4.199-2.3-6.597zm17.796 16.592c-2.999-3.099-5.999-5.498-9.198-7.397.5-.2 1.1-.5 1.6-.799 1.499-1 2.499-2.299 3.099-3.899 1.899 3.199 4.299 6.197 7.298 9.196l3.434 3.433-2.693 3.005-3.54-3.539zM39.897 90.301c-.8.799-2.099.899-2.899.099l-1.4-1.299a1.97 1.97 0 0 1-.6-1.399c0-.6.2-1.1.7-1.599l.566-.634 1.434 1.433c.2.2.4.3.699.3.3 0 .5-.1.7-.3.4-.399.4-.999 0-1.399l-1.512-1.512 1.322-1.477 1.59 1.589c.2.201.4.3.7.3.3 0 .5-.099.7-.3a.967.967 0 0 0 0-1.399l-1.669-1.668 25.715-28.765 4.199 4.198-4.125 4.615c-.118.05-.222.126-.326.23l-3.999 4.498a1.027 1.027 0 0 0-.244.383L39.897 90.301zm23.995-23.788l2.736-3.062 6.461 6.459c1.799 1.899 4.899 4.298 9.397 7.297-.599.2-1.199.5-1.799.899-1.24.775-2.119 1.851-2.731 3.041l-.026.051a7.166 7.166 0 0 0-.106.216c-.05.103-.097.207-.141.311-.031.071-.062.142-.091.213a1.02 1.02 0 0 1-.012.031c-.031.079-.063.157-.092.235a152.25 152.25 0 0 0-1.64-2.358l1.34-1.34c.4-.4.4-.999 0-1.399s-1-.4-1.4 0l-1.114 1.114a89.83 89.83 0 0 0-1.204-1.595l.919-.918c.399-.4.399-1 0-1.4-.4-.4-1-.4-1.4 0l-.763.763a33.415 33.415 0 0 0-2.036-2.262l-6.298-6.296zm26.792 19.989l-2.099-3.598c-.2-.3-.5-.5-.8-.5h-.5c-2.299-.2-4.399 1.1-5.398 3.099l-.2.5c-.2.299-.2.599 0 .899l2.199 3.798c-1.2-.2-2.299-.799-3.199-1.699-1.011-1.095-1.665-2.475-1.727-3.958.018-.074.027-.152.027-.24 0-1.266.402-2.452 1.103-3.456a6.21 6.21 0 0 1 1.596-1.541c1-.7 2.1-1 3.3-1 1.199 0 2.399.4 3.399 1.1 2.1 1.499 2.999 4.197 2.299 6.596z"/></symbol><symbol id="advantages-2"><path fill-rule="evenodd" fill="#F9C82E" d="M63 0c34.794 0 63 28.206 63 63s-28.206 63-63 63S0 97.794 0 63 28.206 0 63 0z"/><path fill-rule="evenodd" fill="#333" d="M98 86.478c0 3.044-2.502 5.521-5.578 5.521h-27.64a14.051 14.051 0 0 1-9.172-3.375c-.164 1.888-1.768 3.375-3.717 3.375H31.328A1.32 1.32 0 0 1 30 90.684V56.699c0-.726.594-1.315 1.328-1.315h20.565a3.733 3.733 0 0 1 3.596 2.708 30.988 30.988 0 0 0 3.331-2.335c3.947-3.179 7.053-7.28 9.233-12.189.595-1.339 1.068-2.851 1.448-4.622a4.954 4.954 0 0 1 1.277-2.41c1.405-1.453 3.191-1.54 3.727-1.535 2.873.007 5.209 2.325 5.209 5.174 0 .552.004 1.062.007 1.544.006.747.012 1.452.001 2.136a23.59 23.59 0 0 1-3.218 11.529h15.918c3.076 0 5.578 2.477 5.578 5.522v.136a5.487 5.487 0 0 1-1.969 4.207A5.49 5.49 0 0 1 98 69.456v.029a5.49 5.49 0 0 1-1.969 4.207A5.487 5.487 0 0 1 98 77.899v.165a5.49 5.49 0 0 1-1.969 4.207A5.487 5.487 0 0 1 98 86.478zM52.969 60.267v-1.188c0-.587-.483-1.065-1.076-1.065H32.656V89.37h11.742V77.913a1.32 1.32 0 0 1 1.328-1.314c.733 0 1.328.588 1.328 1.314V89.37h4.839c.593 0 1.076-.478 1.076-1.065V60.267zm42.375 9.189c0-1.594-1.311-2.892-2.922-2.892h-3.678a1.32 1.32 0 0 1-1.328-1.315 1.32 1.32 0 0 1 1.328-1.314h3.678c1.611 0 2.922-1.298 2.922-2.893h-.001v-.136c0-1.595-1.31-2.892-2.921-2.892H74.066c-.499 0-.955-.276-1.182-.716a1.303 1.303 0 0 1 .104-1.368c2.598-3.567 4.008-7.758 4.078-12.117.01-.652.005-1.342-.001-2.073a187.14 187.14 0 0 1-.008-1.565c0-1.403-1.151-2.544-2.566-2.544l-.056-.001c-.23 0-1.084.048-1.738.724a2.302 2.302 0 0 0-.598 1.138c-.418 1.949-.946 3.628-1.614 5.135-2.351 5.294-5.712 9.725-9.988 13.169a33.783 33.783 0 0 1-4.872 3.266v23.954l1.253 1.195a11.392 11.392 0 0 0 7.904 3.159h27.64c1.611 0 2.921-1.298 2.921-2.892 0-1.595-1.31-2.892-2.921-2.892h-3.678a1.321 1.321 0 0 1-1.328-1.315c0-.726.594-1.315 1.328-1.315h3.678c1.611 0 2.921-1.298 2.921-2.892v-.165c0-1.595-1.31-2.892-2.921-2.892h-3.678a1.321 1.321 0 0 1-1.328-1.315c0-.726.594-1.315 1.328-1.315h3.678c1.611 0 2.922-1.297 2.922-2.892v-.029zm-49.618 3.885a1.322 1.322 0 0 1-1.328-1.315c0-.726.595-1.315 1.328-1.315.734 0 1.328.589 1.328 1.315s-.594 1.315-1.328 1.315z"/></symbol><symbol id="advantages-3"><path fill-rule="evenodd" fill="#F9C82E" d="M63 0c34.794 0 63 28.206 63 63s-28.206 63-63 63S0 97.794 0 63 28.206 0 63 0z"/><path fill-rule="evenodd" fill="#333" d="M87.881 95.648A1.364 1.364 0 0 1 86.507 97H39.374A1.365 1.365 0 0 1 38 95.645V30.354c0-.748.615-1.354 1.374-1.354h47.25c.365 0 .716.143.973.397.258.255.403.6.402.959l-.118 65.292zM40.749 31.709v62.582h44.385l.113-62.582H40.749zm41.473 56.213l-2.993.339-.344 2.949c-.06.518-.416.956-.916 1.126a1.385 1.385 0 0 1-1.426-.326l-6.287-6.251a7.124 7.124 0 0 1-.587.026c-.2 0-.398-.01-.594-.026l-6.33 6.254a1.388 1.388 0 0 1-1.425.322 1.358 1.358 0 0 1-.914-1.124l-.343-2.95-2.994-.339a1.368 1.368 0 0 1-1.141-.898 1.34 1.34 0 0 1 .325-1.404l6.347-6.269a6.832 6.832 0 0 1-.025-.556c0-3.855 3.182-6.991 7.094-6.991 3.912 0 7.094 3.136 7.094 6.991 0 .189-.01.376-.025.562l6.303 6.266c.371.369.496.913.321 1.402-.174.49-.617.838-1.14.897zm-18.701-5.646l-3.315 3.275 1.254.141a1.366 1.366 0 0 1 1.209 1.192l.143 1.226 3.307-3.267a7.091 7.091 0 0 1-2.598-2.567zm6.148-7.763c-2.396 0-4.345 1.921-4.345 4.282 0 2.361 1.949 4.281 4.345 4.281s4.345-1.92 4.345-4.281c0-2.361-1.949-4.282-4.345-4.282zm6.143 7.772a7.092 7.092 0 0 1-2.602 2.563l3.27 3.251.142-1.215a1.365 1.365 0 0 1 1.209-1.192l1.265-.143-3.284-3.264zm3.34-36.76H46.847a1.365 1.365 0 0 1-1.375-1.354c0-.748.616-1.355 1.375-1.355h32.305c.759 0 1.375.607 1.375 1.355s-.616 1.354-1.375 1.354zm-10.585-5.689H57.432a1.365 1.365 0 0 1-1.375-1.354c0-.749.616-1.355 1.375-1.355h11.135c.759 0 1.375.606 1.375 1.355 0 .748-.616 1.354-1.375 1.354zM53.651 65.573h-.756a1.364 1.364 0 0 1-1.374-1.354c0-.749.615-1.355 1.374-1.355h.756c.76 0 1.375.606 1.375 1.355 0 .748-.615 1.354-1.375 1.354zm0-10.701h-.756a1.365 1.365 0 0 1-1.374-1.354c0-.749.615-1.355 1.374-1.355h.756c.76 0 1.375.606 1.375 1.355 0 .747-.615 1.354-1.375 1.354zm0 5.283h-.756a1.365 1.365 0 0 1-1.374-1.355c0-.748.615-1.354 1.374-1.354h.756c.76 0 1.375.606 1.375 1.354 0 .748-.615 1.355-1.375 1.355zm19.453 5.418H58.6a1.364 1.364 0 0 1-1.374-1.354c0-.749.615-1.355 1.374-1.355h14.503c.76 0 1.375.606 1.375 1.355 0 .748-.615 1.354-1.374 1.354zM58.6 54.872a1.365 1.365 0 0 1-1.374-1.354c0-.749.615-1.355 1.374-1.355h14.503c.76 0 1.375.606 1.375 1.355 0 .747-.615 1.354-1.374 1.354H58.6zm14.504 5.283H58.6a1.365 1.365 0 0 1-1.374-1.355c0-.748.615-1.354 1.374-1.354h14.503c.76 0 1.375.606 1.375 1.354 0 .748-.615 1.355-1.374 1.355zM56.813 75.733c.759 0 1.375.606 1.375 1.354 0 .748-.616 1.355-1.375 1.355H46.228a1.366 1.366 0 0 1-1.375-1.355c0-.748.616-1.354 1.375-1.354h10.585z"/></symbol><symbol id="advantages-4"><path fill-rule="evenodd" fill="#F9C82E" d="M63 0c34.794 0 63 28.206 63 63s-28.206 63-63 63S0 97.794 0 63 28.206 0 63 0z"/><path fill-rule="evenodd" fill="#333" d="M74.346 82.608c-5.126 0-9.295-4.171-9.295-9.296 0-3.469 1.915-6.496 4.738-8.092.011-.005.018-.013.027-.018a9.247 9.247 0 0 1 4.53-1.185 9.25 9.25 0 0 1 2.448.338c.007.002.016.002.023.006 3.928 1.085 6.825 4.683 6.825 8.951 0 5.125-4.17 9.296-9.296 9.296zm3.099-15.818v7.555a1.033 1.033 0 0 1-2.066 0v-8.18a7.308 7.308 0 0 0-1.033-.082 7.186 7.186 0 0 0-3.098.707v7.555a1.033 1.033 0 0 1-2.066 0v-6.083a7.208 7.208 0 0 0-2.066 5.05c0 3.987 3.245 7.23 7.23 7.23 3.986 0 7.23-3.243 7.23-7.23 0-2.876-1.694-5.358-4.131-6.522zm15.618 25.239a3.089 3.089 0 0 1-2.191.905 3.09 3.09 0 0 1-2.191-.906l-7.32-7.335c-2.168 1.34-4.576 2.046-7.014 2.046-7.404 0-13.427-6.024-13.427-13.427s6.023-13.426 13.427-13.426c7.403 0 13.426 6.023 13.426 13.426 0 1.307-.188 2.598-.557 3.837a1.032 1.032 0 1 1-1.979-.591c.313-1.048.471-2.14.471-3.246 0-6.264-5.097-11.361-11.361-11.361-6.265 0-11.362 5.097-11.362 11.361s5.097 11.361 11.362 11.361c2.288 0 4.554-.743 6.555-2.151a1.034 1.034 0 0 1 1.325.114l7.916 7.933a1.035 1.035 0 0 0 1.459 0 1.035 1.035 0 0 0 0-1.462l-7.972-7.972a1.034 1.034 0 0 1 1.46-1.461l7.973 7.973a3.102 3.102 0 0 1 0 4.382zm-9.421-48.668v15.492a1.033 1.033 0 0 1-2.066 0V43.361a1.032 1.032 0 1 1 2.066 0zm-4.132 0v13.426a1.032 1.032 0 1 1-2.065 0V43.361a1.032 1.032 0 1 1 2.065 0zm-6.197 0v13.426a1.032 1.032 0 1 1-2.065 0V43.361a1.032 1.032 0 1 1 2.065 0zm-8.262 0v16.525a1.032 1.032 0 0 1-2.066 0V43.361a1.032 1.032 0 1 1 2.066 0zm23.755 22.721a1.032 1.032 0 0 1-1.033-1.032V37.164a3.103 3.103 0 0 0-3.098-3.099H44.394a1.033 1.033 0 1 1 0-2.065h40.281a5.17 5.17 0 0 1 5.164 5.164V65.05c0 .57-.462 1.032-1.033 1.032zm-41.314 9.296c.572 0 1.033.462 1.033 1.032v2.066a1.032 1.032 0 1 1-2.065 0V76.41c0-.57.461-1.032 1.032-1.032zm0-33.05c.572 0 1.033.462 1.033 1.033v28.918a1.032 1.032 0 1 1-2.065 0V43.361c0-.571.461-1.033 1.032-1.033zm6.197 33.05c.572 0 1.033.462 1.033 1.032v2.066a1.032 1.032 0 1 1-2.065 0V76.41c0-.57.461-1.032 1.032-1.032zm.001-33.05c.571 0 1.032.462 1.032 1.033v28.918a1.032 1.032 0 1 1-2.065 0V43.361c0-.571.461-1.033 1.033-1.033zm4.131 30.984a1.033 1.033 0 0 1-1.033-1.033V43.361a1.032 1.032 0 1 1 2.066 0v28.918c0 .57-.462 1.033-1.033 1.033zm1.033 5.164a1.033 1.033 0 0 1-2.066 0V76.41a1.032 1.032 0 0 1 2.066 0v2.066zm-10.631 7.533l5.466 5.466 3.402-3.401a1.03 1.03 0 0 1 1.46 0l3.401 3.401 4.434-4.434a1.034 1.034 0 0 1 1.461 0l4.434 4.434 2.368-2.368a1.03 1.03 0 0 1 1.46 0l2.369 2.368 2.368-2.368a1.03 1.03 0 0 1 1.46 0 1.03 1.03 0 0 1 0 1.46l-3.098 3.099a1.033 1.033 0 0 1-1.461 0l-2.368-2.368-2.368 2.368a1.032 1.032 0 0 1-1.461 0l-4.434-4.434-4.434 4.434a1.03 1.03 0 0 1-1.46 0l-3.401-3.401-3.401 3.401a1.032 1.032 0 0 1-1.461 0l-5.467-5.467-5.466 5.466a1.036 1.036 0 0 1-1.125.224 1.038 1.038 0 0 1-.639-.953V37.164a3.103 3.103 0 0 0-3.098-3.099 3.104 3.104 0 0 0-3.099 3.099v34.083h3.099a1.032 1.032 0 1 1 0 2.065h-4.132A1.032 1.032 0 0 1 32 72.279V37.164A5.17 5.17 0 0 1 37.164 32a5.17 5.17 0 0 1 5.164 5.164v53.278l4.434-4.433a1.032 1.032 0 0 1 1.461 0z"/></symbol><symbol id="services-1"><path d="M57.542 38.92a.85.85 0 0 1 .458.755v13.474a.85.85 0 0 1-.85.851H4.249a.85.85 0 0 1-.85-.851V25.324a.853.853 0 0 1-.582-.29L.209 22.043a.851.851 0 0 1 .082-1.2l1.389-1.214 4.603-9.776a.852.852 0 0 1 .769-.487h6.369l1.796-1.57a2.84 2.84 0 0 1 3.725 0l1.796 1.57h17.057V5.228h-.329a.85.85 0 0 1-.849-.851V.85c0-.47.38-.85.849-.85h8.256a.85.85 0 0 1 .849.85v3.527a.85.85 0 0 1-.849.851h-.329v4.138h6.683a.85.85 0 0 1 .769.487l4.679 9.936a.85.85 0 0 1-.769 1.214h-1.52v16.718l2.307 1.199zm-8.206 13.378h1.436v-1.02h-1.436v1.02zm0-2.721h1.436v-1.71h-1.436v1.71zm0-3.412h1.436v-2.228h-1.436v2.228zm0-3.93h1.436v-1.709h-1.436v1.709zm-5.529 10.063h3.83V40.192l-1.915-.995-1.915.995v12.106zm-3.135 0h1.436v-1.02h-1.436v1.02zm0-2.721h1.436v-1.71h-1.436v1.71zm0-3.412h1.436v-2.228h-1.436v2.228zm0-3.93h1.436v-1.709h-1.436v1.709zm-1.699 10.063V40.192l-1.915-.996-1.915.996v12.106h3.83zm-8.213 0h2.684v-1.02H30.76v1.02zm2.684-10.063v-1.709H30.76v1.709h2.684zm-2.684 7.342h2.684v-1.71H30.76v1.71zm0-3.412h2.684v-2.228H30.76v2.228zm0-7.341h3.326l2.581-1.341a.846.846 0 0 1 .783 0l2.58 1.341h2.72l2.58-1.341a.846.846 0 0 1 .783 0l2.581 1.341h2.72l2.122-1.103V21.003H34.011c.002.003.003.007.006.01a.87.87 0 0 1-.067 1.03l-2.608 2.991a.884.884 0 0 1-.394.255 2.292 2.292 0 0 1-.188.035v13.5zM13.466 52.298h7.227V37.173h-7.227v15.125zm-8.367 0h6.668V36.322c0-.469.38-.85.85-.85h8.926a.85.85 0 0 1 .85.85v15.976h6.668V24.17L17.08 13.697 5.099 24.17v28.128zm2.492-41.231l-2.718 5.77 6.602-5.77H7.591zm37.281-9.366h-6.556v1.826h6.556V1.701zm-5.378 3.527v6.352h4.2V5.228h-4.2zm15.921 14.074l-3.878-8.235h-6.144v1.364a.85.85 0 0 1-.849.851h-5.9a.85.85 0 0 1-.849-.851v-1.364H22.684l3.022 2.641a.862.862 0 0 1 .082 1.201.85.85 0 0 1-1.199.081l-6.764-5.913a1.138 1.138 0 0 0-1.491 0L2.048 21.565l1.491 1.71 12.982-11.348a.848.848 0 0 1 1.117 0L30.62 23.275l1.491-1.71-4.956-4.332a.85.85 0 1 1 1.117-1.282l3.833 3.351h23.31zm-1.029 19.895l-1.915.995v12.106h3.83V40.192l-1.915-.995zm0 3.058a.663.663 0 1 1 .001-1.325.663.663 0 0 1-.001 1.325zM21.434 20.499v6.978h.109a.85.85 0 0 1 .85.851v3.455a.85.85 0 0 1-.85.851h-8.927a.85.85 0 0 1-.849-.851v-3.455c0-.47.38-.851.849-.851h.11v-6.978c0-.47.38-.85.849-.85h7.009c.469 0 .85.38.85.85zm-7.968 8.679v1.755h7.227v-1.755h-7.227zm6.268-7.828h-5.309v6.127h5.309V21.35zm14.463 9.777h.109v-6.978c0-.469.38-.85.85-.85h13.807a.85.85 0 0 1 .85.85v6.978h.109a.85.85 0 0 1 .849.851v3.455a.85.85 0 0 1-.849.851H34.197a.85.85 0 0 1-.85-.851v-3.455c0-.47.38-.851.85-.851zM48.114 25H36.005v6.127h12.109V25zm-13.068 9.583h14.026v-1.755H35.046v1.755zm2.013 6.345a.662.662 0 1 1 0 1.325.662.662 0 0 1 0-1.325zm9.326.663a.663.663 0 1 1-1.327.001.663.663 0 0 1 1.327-.001z"/></symbol><symbol id="services-2"><path d="M54.906 35.67c.604 0 1.094.492 1.094 1.098v7.134c0 .606-.49 1.098-1.094 1.098H1.094A1.096 1.096 0 0 1 0 43.902v-7.134c0-.606.489-1.098 1.094-1.098h1.75v-4.938h-1.75A1.096 1.096 0 0 1 0 29.634V22.5c0-.607.489-1.098 1.094-1.098h1.75v-4.939h-1.75A1.095 1.095 0 0 1 0 15.365V8.232c0-.607.489-1.098 1.094-1.098h1.75V1.097C2.844.491 3.333 0 3.937 0H28c.604 0 1.094.491 1.094 1.097v6.037h10.937c.604 0 1.094.492 1.094 1.098v6.036h10.938c.604 0 1.093.491 1.093 1.098v6.036h1.75c.604 0 1.094.491 1.094 1.098v7.134c0 .606-.49 1.098-1.094 1.098h-1.75v4.938h1.75zm-37.844 7.135h21.876v-6.037c0-.606.489-1.098 1.093-1.098h10.938v-4.938H29.094v4.938h4.431c.604 0 1.094.492 1.094 1.098 0 .606-.49 1.098-1.094 1.098H17.062v4.939zm0-19.208v4.939h21.876v-4.939H17.062zm9.844-2.195v-4.939H5.031v4.939h21.875zm0 14.268v-4.938H5.031v4.938h21.875zM2.187 37.866v4.939h12.688v-4.939H2.187zm0-14.269v4.939h12.688v-4.939H2.187zm0-14.268v4.939h12.688V9.329H2.187zm24.719-7.134H5.031v4.939h21.875V2.195zm12.032 7.134H17.062v4.939h21.876V9.329zm12.031 7.134H29.094v4.939h21.875v-4.939zm2.843 12.073v-4.939H41.125v4.939H53.812zm-12.687 9.33v4.938h12.687v-4.938H41.125zm-4.626-2.196h.046c.604 0 1.094.492 1.094 1.098 0 .606-.49 1.098-1.094 1.098h-.046a1.096 1.096 0 0 1-1.094-1.098c0-.606.49-1.098 1.094-1.098z"/></symbol><symbol id="services-3"><path d="M13.061 41.197a.992.992 0 1 1 1.984 0 .992.992 0 0 1-1.984 0zM54.007 7.58a.992.992 0 0 1-.992-.992V1.985H1.985v51.029h33.113v-2.235h-5.509a.992.992 0 0 1-.992-.992v-9.664h-2.194v9.664a.992.992 0 0 1-.993.992H5.171a.992.992 0 0 1-.992-.992V32.236c0-.548.444-.993.992-.993h27.396V29.05h-20.63a.994.994 0 0 1 0-1.986H33.56c.548 0 .992.445.992.993v4.179a.992.992 0 0 1-.992.992H6.164v2.647h3.018c.932 0 1.756.47 2.25 1.185a6.287 6.287 0 0 1 2.898-.687c.833 0 1.634.152 2.382.452a.992.992 0 0 1-.739 1.843 4.38 4.38 0 0 0-1.643-.31c-.893 0-1.75.261-2.413.726v4.226c.663.465 1.52.726 2.413.726 2.002 0 3.63-1.273 3.63-2.839a2.3 2.3 0 0 0-.357-1.222.992.992 0 1 1 1.689-1.043c.427.692.653 1.475.653 2.265 0 2.66-2.519 4.825-5.615 4.825a6.292 6.292 0 0 1-2.897-.687 2.733 2.733 0 0 1-2.251 1.185H6.164v2.274h18.254v-9.663c0-.548.444-.993.992-.993h4.179c.548 0 .993.445.993.993v9.663h5.508c.548 0 .993.444.993.993v4.22a.993.993 0 0 1-.993.993H.992A.992.992 0 0 1 0 54.007V.992C0 .444.444 0 .992 0h53.015c.548 0 .993.444.993.992v5.596a.993.993 0 0 1-.993.992zM9.182 44.535a.75.75 0 0 0 .75-.75V38.61a.75.75 0 0 0-.75-.749H6.164v6.674h3.018zM33.17 23.3V9.669c0-.548.445-.993.993-.993h7.327c.549 0 .993.445.993.993V23.3a.993.993 0 0 1-.993.993h-7.327a.994.994 0 0 1-.993-.993zm7.328-9.396h-1.893v5.161h1.893v-5.161zm-5.343 8.404h5.343V21.05h-2.886a.993.993 0 0 1-.993-.992v-7.147c0-.548.445-.992.993-.992h2.886v-1.258h-5.343v11.647zm8.93 26.486h4.751V33.229h-4.242a.993.993 0 0 1-.992-.993v-4.179c0-.548.444-.993.992-.993h4.242v-2.771h-2.622a.993.993 0 0 1-.992-.993V9.669c0-.548.444-.993.992-.993h2.622V6.122H30.582v14.379a.993.993 0 0 1-.993.992H25.41a.992.992 0 0 1-.992-.992V6.122h-7.674v12.307a6.374 6.374 0 0 1-6.368 6.368H6.164v2.267h2.597a.993.993 0 0 1 0 1.986h-3.59a.993.993 0 0 1-.992-.993V5.13c0-.548.444-.993.992-.993H25.41c.548 0 .993.445.993.993v14.378h2.194V5.13c0-.548.444-.993.992-.993h20.239c.548 0 .993.445.993.993v22.927a.993.993 0 0 1-.993.993h-4.241v2.194h4.241c.548 0 .993.444.993.992v17.551a.994.994 0 0 1-.993.993h-4.75v2.234h7.937V10.117a.993.993 0 1 1 1.985 0v43.89a.994.994 0 0 1-.993.993h-9.922a.993.993 0 0 1-.992-.993v-4.22c0-.549.444-.993.992-.993zM14.759 6.122h-.724v.642a.994.994 0 0 1-1.985 0v-.642h-.596v2.627a.993.993 0 1 1-1.985 0V6.122h-.596v.642a.993.993 0 1 1-1.985 0v-.642h-.724v16.69h4.212a4.388 4.388 0 0 0 4.383-4.383V6.122zm34.077 4.539h-1.629v11.647h1.629V10.661zm-38.374 9.536a.993.993 0 1 1 0-1.986.993.993 0 0 1 0 1.986z"/></symbol></svg>